simonWriting.ufo
<glyph name="double" format="1">
  <advance width="238"/>
  <unicode hex="0022"/>
  <outline>
    <contour>
      <point x="65" y="920" type="curve" smooth="yes"/>
      <point x="82" y="920"/>
      <point x="98" y="901"/>
      <point x="102" y="887" type="curve" smooth="yes"/>
      <point x="104" y="881"/>
      <point x="105" y="866"/>
      <point x="105" y="847" type="curve" smooth="yes"/>
      <point x="105" y="787"/>
      <point x="94" y="686"/>
      <point x="63" y="686" type="curve" smooth="yes"/>
      <point x="60" y="686" type="line"/>
      <point x="39" y="692"/>
      <point x="30" y="742"/>
      <point x="30" y="795" type="curve" smooth="yes"/>
      <point x="30" y="854"/>
      <point x="42" y="915"/>
      <point x="60" y="919" type="curve" smooth="yes"/>
      <point x="62" y="919"/>
      <point x="63" y="920"/>
    </contour>
    <contour>
      <point x="172" y="907" type="curve" smooth="yes"/>
      <point x="186" y="907"/>
      <point x="199" y="897"/>
      <point x="208" y="887" type="curve"/>
      <point x="207" y="875"/>
      <point x="207" y="862"/>
      <point x="207" y="849" type="curve" smooth="yes"/>
      <point x="207" y="827"/>
      <point x="208" y="804"/>
      <point x="208" y="782" type="curve" smooth="yes"/>
      <point x="208" y="732"/>
      <point x="203" y="688"/>
      <point x="171" y="670" type="curve"/>
      <point x="142" y="684"/>
      <point x="133" y="721"/>
      <point x="133" y="762" type="curve" smooth="yes"/>
      <point x="133" y="809"/>
      <point x="145" y="863"/>
      <point x="150" y="898" type="curve"/>
      <point x="157" y="905"/>
      <point x="165" y="907"/>
    </contour>
  </outline>
</glyph>
<glyph name="dollar" format="1">
  <advance width="828"/>
  <unicode hex="0024"/>
  <outline>
    <contour>
      <point x="349" y="877" type="line"/>
      <point x="352" y="877"/>
      <point x="355" y="878"/>
      <point x="358" y="878" type="curve" smooth="yes"/>
      <point x="388" y="878"/>
      <point x="395" y="855"/>
      <point x="395" y="826" type="curve" smooth="yes"/>
      <point x="395" y="797"/>
      <point x="388" y="762"/>
      <point x="388" y="733" type="curve" smooth="yes"/>
      <point x="388" y="703"/>
      <point x="396" y="681"/>
      <point x="426" y="681" type="curve" smooth="yes"/>
      <point x="434" y="681"/>
      <point x="443" y="682"/>
      <point x="455" y="686" type="curve"/>
      <point x="464" y="687"/>
      <point x="467" y="693"/>
      <point x="467" y="702" type="curve" smooth="yes"/>
      <point x="467" y="724"/>
      <point x="450" y="764"/>
      <point x="450" y="802" type="curve" smooth="yes"/>
      <point x="450" y="813"/>
      <point x="451" y="824"/>
      <point x="455" y="834" type="curve"/>
      <point x="524" y="832"/>
      <point x="501" y="738"/>
      <point x="519" y="686" type="curve"/>
      <point x="553" y="616"/>
      <point x="710" y="668"/>
      <point x="710" y="564" type="curve" smooth="yes"/>
      <point x="710" y="558" type="line"/>
      <point x="703" y="557"/>
      <point x="697" y="557"/>
      <point x="691" y="557" type="curve" smooth="yes"/>
      <point x="621" y="557"/>
      <point x="617" y="622"/>
      <point x="547" y="622" type="curve" smooth="yes"/>
      <point x="540" y="622" type="line"/>
      <point x="538" y="613"/>
      <point x="537" y="605"/>
      <point x="537" y="598" type="curve" smooth="yes"/>
      <point x="537" y="534"/>
      <point x="629" y="563"/>
      <point x="667" y="537" type="curve"/>
      <point x="669" y="537" type="line" smooth="yes"/>
      <point x="732" y="537"/>
      <point x="750" y="492"/>
      <point x="795" y="473" type="curve"/>
      <point x="797" y="458"/>
      <point x="798" y="443"/>
      <point x="798" y="430" type="curve" smooth="yes"/>
      <point x="798" y="262"/>
      <point x="622" y="224"/>
      <point x="443" y="224" type="curve" smooth="yes"/>
      <point x="356" y="224"/>
      <point x="268" y="233"/>
      <point x="200" y="240" type="curve"/>
      <point x="200" y="244"/>
      <point x="201" y="247"/>
      <point x="201" y="250" type="curve" smooth="yes"/>
      <point x="201" y="268"/>
      <point x="193" y="278"/>
      <point x="179" y="282" type="curve"/>
      <point x="179" y="288" type="line" smooth="yes"/>
      <point x="179" y="336"/>
      <point x="212" y="350"/>
      <point x="221" y="388" type="curve"/>
      <point x="224" y="388" type="line" smooth="yes"/>
      <point x="240" y="388"/>
      <point x="245" y="376"/>
      <point x="245" y="360" type="curve" smooth="yes"/>
      <point x="245" y="342"/>
      <point x="239" y="317"/>
      <point x="239" y="299" type="curve" smooth="yes"/>
      <point x="239" y="292"/>
      <point x="240" y="287"/>
      <point x="242" y="282" type="curve"/>
      <point x="370" y="282" type="line"/>
      <point x="370" y="291" type="line" smooth="yes"/>
      <point x="370" y="359"/>
      <point x="345" y="401"/>
      <point x="345" y="469" type="curve" smooth="yes"/>
      <point x="345" y="483"/>
      <point x="346" y="499"/>
      <point x="349" y="516" type="curve"/>
      <point x="335" y="517"/>
      <point x="321" y="518"/>
      <point x="306" y="518" type="curve" smooth="yes"/>
      <point x="266" y="518"/>
      <point x="222" y="514"/>
      <point x="181" y="514" type="curve" smooth="yes"/>
      <point x="102" y="514"/>
      <point x="35" y="527"/>
      <point x="30" y="601" type="curve"/>
      <point x="119" y="647"/>
      <point x="243" y="658"/>
      <point x="349" y="686" type="curve"/>
    </contour>
    <contour>
      <point x="221" y="643" type="curve"/>
      <point x="216" y="587"/>
      <point x="114" y="629"/>
      <point x="114" y="570" type="curve" smooth="yes"/>
      <point x="114" y="566"/>
      <point x="114" y="562"/>
      <point x="115" y="558" type="curve"/>
      <point x="349" y="558" type="line"/>
      <point x="349" y="643" type="line"/>
      <point x="339" y="645"/>
      <point x="330" y="646"/>
      <point x="322" y="646" type="curve" smooth="yes"/>
      <point x="287" y="646"/>
      <point x="268" y="628"/>
      <point x="249" y="628" type="curve" smooth="yes"/>
      <point x="240" y="628"/>
      <point x="231" y="632"/>
    </contour>
    <contour>
      <point x="391" y="558" type="curve"/>
      <point x="476" y="558" type="line"/>
      <point x="476" y="643" type="line"/>
      <point x="467" y="644"/>
      <point x="459" y="645"/>
      <point x="452" y="645" type="curve" smooth="yes"/>
      <point x="410" y="645"/>
      <point x="389" y="624"/>
      <point x="389" y="582" type="curve" smooth="yes"/>
      <point x="389" y="575"/>
      <point x="390" y="567"/>
    </contour>
    <contour>
      <point x="412" y="282" type="curve"/>
      <point x="442" y="280"/>
      <point x="471" y="279"/>
      <point x="499" y="279" type="curve" smooth="yes"/>
      <point x="641" y="279"/>
      <point x="752" y="310"/>
      <point x="752" y="452" type="curve"/>
      <point x="702" y="487"/>
      <point x="629" y="499"/>
      <point x="561" y="516" type="curve"/>
      <point x="557" y="505"/>
      <point x="555" y="494"/>
      <point x="555" y="483" type="curve" smooth="yes"/>
      <point x="555" y="438"/>
      <point x="584" y="398"/>
      <point x="584" y="365" type="curve" smooth="yes"/>
      <point x="584" y="350"/>
      <point x="578" y="336"/>
      <point x="561" y="324" type="curve"/>
      <point x="504" y="352"/>
      <point x="525" y="459"/>
      <point x="497" y="516" type="curve"/>
      <point x="412" y="516" type="line"/>
      <point x="399" y="500"/>
      <point x="395" y="484"/>
      <point x="395" y="466" type="curve" smooth="yes"/>
      <point x="395" y="426"/>
      <point x="417" y="381"/>
      <point x="417" y="326" type="curve" smooth="yes"/>
      <point x="417" y="312"/>
      <point x="416" y="297"/>
    </contour>
  </outline>
</glyph>
<glyph name="apostrophe" format="1">
  <advance width="219"/>
  <unicode hex="0027"/>
  <outline>
    <contour>
      <point x="30" y="979" type="curve"/>
      <point x="44" y="988"/>
      <point x="54" y="1002"/>
      <point x="83" y="1002" type="curve" smooth="yes"/>
      <point x="89" y="1002" type="line"/>
      <point x="133" y="975"/>
      <point x="189" y="862"/>
      <point x="189" y="782" type="curve" smooth="yes"/>
      <point x="189" y="756"/>
      <point x="183" y="733"/>
      <point x="169" y="718" type="curve"/>
      <point x="118" y="718" type="line"/>
      <point x="99" y="730"/>
      <point x="94" y="746"/>
      <point x="94" y="763" type="curve" smooth="yes"/>
      <point x="94" y="778"/>
      <point x="98" y="793"/>
      <point x="98" y="807" type="curve" smooth="yes"/>
      <point x="98" y="812"/>
      <point x="97" y="816"/>
      <point x="96" y="821" type="curve" smooth="yes"/>
      <point x="84" y="874"/>
      <point x="30" y="926"/>
    </contour>
  </outline>
</glyph>
<glyph name="parenthese" format="1">
  <advance width="257"/>
  <unicode hex="0029"/>
  <outline>
    <contour>
      <point x="120" y="876" type="line"/>
      <point x="146" y="873"/>
      <point x="173" y="839"/>
      <point x="185" y="810" type="curve" smooth="yes"/>
      <point x="213" y="744"/>
      <point x="227" y="643"/>
      <point x="227" y="543" type="curve" smooth="yes"/>
      <point x="227" y="428"/>
      <point x="209" y="315"/>
      <point x="175" y="259" type="curve"/>
      <point x="151" y="241"/>
      <point x="116" y="224"/>
      <point x="86" y="224" type="curve" smooth="yes"/>
      <point x="61" y="224"/>
      <point x="39" y="236"/>
      <point x="30" y="269" type="curve"/>
      <point x="138" y="270"/>
      <point x="169" y="358"/>
      <point x="169" y="469" type="curve" smooth="yes"/>
      <point x="169" y="614"/>
      <point x="116" y="797"/>
      <point x="110" y="876" type="curve"/>
    </contour>
  </outline>
</glyph>
<glyph name="astérisque" format="1">
  <advance width="470"/>
  <unicode hex="002A"/>
  <outline>
    <contour>
      <point x="300" y="733" type="line"/>
      <point x="301" y="732"/>
      <point x="303" y="732"/>
      <point x="304" y="732" type="curve" smooth="yes"/>
      <point x="317" y="732"/>
      <point x="333" y="776"/>
      <point x="348" y="776" type="curve" smooth="yes"/>
      <point x="350" y="776"/>
      <point x="351" y="775"/>
      <point x="353" y="774" type="curve" smooth="yes"/>
      <point x="370" y="767"/>
      <point x="376" y="757"/>
      <point x="376" y="745" type="curve" smooth="yes"/>
      <point x="376" y="718"/>
      <point x="347" y="683"/>
      <point x="347" y="657" type="curve"/>
      <point x="351" y="655"/>
      <point x="356" y="654"/>
      <point x="362" y="654" type="curve" smooth="yes"/>
      <point x="377" y="654"/>
      <point x="396" y="660"/>
      <point x="411" y="660" type="curve" smooth="yes"/>
      <point x="424" y="660"/>
      <point x="435" y="656"/>
      <point x="440" y="639" type="curve"/>
      <point x="437" y="578"/>
      <point x="367" y="583"/>
      <point x="323" y="563" type="curve"/>
      <point x="337" y="516"/>
      <point x="361" y="479"/>
      <point x="361" y="418" type="curve" smooth="yes"/>
      <point x="361" y="407"/>
      <point x="360" y="395"/>
      <point x="358" y="382" type="curve"/>
      <point x="347" y="377"/>
      <point x="337" y="375"/>
      <point x="329" y="375" type="curve" smooth="yes"/>
      <point x="290" y="375"/>
      <point x="277" y="421"/>
      <point x="259" y="446" type="curve"/>
      <point x="254" y="443"/>
      <point x="253" y="436"/>
      <point x="253" y="428" type="curve" smooth="yes"/>
      <point x="253" y="406" type="line" smooth="yes"/>
      <point x="253" y="398"/>
      <point x="252" y="391"/>
      <point x="247" y="388" type="curve"/>
      <point x="243" y="388"/>
      <point x="240" y="387"/>
      <point x="237" y="387" type="curve" smooth="yes"/>
      <point x="198" y="387"/>
      <point x="186" y="412"/>
      <point x="186" y="443" type="curve" smooth="yes"/>
      <point x="186" y="467"/>
      <point x="193" y="495"/>
      <point x="201" y="516" type="curve"/>
      <point x="195" y="517"/>
      <point x="190" y="518"/>
      <point x="184" y="518" type="curve" smooth="yes"/>
      <point x="137" y="518"/>
      <point x="98" y="477"/>
      <point x="43" y="475" type="curve"/>
      <point x="34" y="487"/>
      <point x="30" y="497"/>
      <point x="30" y="506" type="curve" smooth="yes"/>
      <point x="30" y="551"/>
      <point x="123" y="569"/>
      <point x="165" y="587" type="curve"/>
      <point x="147" y="639"/>
      <point x="59" y="620"/>
      <point x="31" y="663" type="curve"/>
      <point x="39" y="697"/>
      <point x="59" y="708"/>
      <point x="83" y="708" type="curve" smooth="yes"/>
      <point x="127" y="708"/>
      <point x="187" y="669"/>
      <point x="218" y="657" type="curve"/>
      <point x="230" y="716"/>
      <point x="206" y="878"/>
      <point x="258" y="878" type="curve" smooth="yes"/>
      <point x="269" y="878"/>
      <point x="282" y="872"/>
      <point x="300" y="856" type="curve"/>
    </contour>
  </outline>
</glyph>
<glyph name="signe" format="1">
  <advance width="515"/>
  <unicode hex="002B"/>
  <outline>
    <contour>
      <point x="297" y="458" type="curve"/>
      <point x="343" y="458"/>
      <point x="395" y="487"/>
      <point x="440" y="487" type="curve" smooth="yes"/>
      <point x="456" y="487"/>
      <point x="471" y="483"/>
      <point x="485" y="473" type="curve"/>
      <point x="464" y="409"/>
      <point x="377" y="410"/>
      <point x="312" y="390" type="curve"/>
      <point x="311" y="386"/>
      <point x="311" y="382"/>
      <point x="311" y="378" type="curve" smooth="yes"/>
      <point x="311" y="352"/>
      <point x="323" y="337"/>
      <point x="323" y="311" type="curve" smooth="yes"/>
      <point x="323" y="306" type="line"/>
      <point x="312" y="298"/>
      <point x="302" y="294"/>
      <point x="292" y="294" type="curve" smooth="yes"/>
      <point x="250" y="294"/>
      <point x="220" y="359"/>
      <point x="176" y="369" type="curve"/>
      <point x="171" y="369" type="line" smooth="yes"/>
      <point x="133" y="369"/>
      <point x="93" y="341"/>
      <point x="62" y="341" type="curve" smooth="yes"/>
      <point x="50" y="341"/>
      <point x="39" y="345"/>
      <point x="30" y="358" type="curve"/>
      <point x="52" y="412"/>
      <point x="112" y="430"/>
      <point x="182" y="437" type="curve"/>
      <point x="243" y="448"/>
      <point x="204" y="623"/>
      <point x="254" y="623" type="curve" smooth="yes"/>
      <point x="263" y="623"/>
      <point x="275" y="617"/>
      <point x="291" y="604" type="curve"/>
      <point x="291" y="579" type="line"/>
      <point x="291" y="528" type="line" smooth="yes"/>
      <point x="291" y="503"/>
      <point x="292" y="478"/>
    </contour>
  </outline>
</glyph>
<glyph name="virgule" format="1">
  <advance width="160"/>
  <unicode hex="002C"/>
  <outline>
    <contour>
      <point x="120" y="378" type="line"/>
      <point x="127" y="359"/>
      <point x="130" y="340"/>
      <point x="130" y="320" type="curve" smooth="yes"/>
      <point x="130" y="247"/>
      <point x="88" y="175"/>
      <point x="33" y="152" type="curve"/>
      <point x="31" y="162"/>
      <point x="30" y="172"/>
      <point x="30" y="181" type="curve" smooth="yes"/>
      <point x="30" y="248"/>
      <point x="82" y="308"/>
      <point x="90" y="378" type="curve"/>
    </contour>
  </outline>
</glyph>
<glyph name="slash" format="1">
  <advance width="419"/>
  <unicode hex="002F"/>
  <outline>
    <contour>
      <point x="389" y="811" type="curve"/>
      <point x="328" y="725"/>
      <point x="276" y="630"/>
      <point x="222" y="533" type="curve" smooth="yes"/>
      <point x="169" y="439"/>
      <point x="135" y="330"/>
      <point x="55" y="260" type="curve"/>
      <point x="36" y="270"/>
      <point x="30" y="283"/>
      <point x="30" y="296" type="curve" smooth="yes"/>
      <point x="30" y="326"/>
      <point x="66" y="362"/>
      <point x="81" y="388" type="curve" smooth="yes"/>
      <point x="105" y="430"/>
      <point x="131" y="482"/>
      <point x="154" y="525" type="curve" smooth="yes"/>
      <point x="214" y="638"/>
      <point x="273" y="766"/>
      <point x="359" y="828" type="curve"/>
      <point x="370" y="823"/>
      <point x="380" y="818"/>
    </contour>
  </outline>
</glyph>
<glyph name="zero" format="1">
  <advance width="568"/>
  <unicode hex="0030"/>
  <outline>
    <contour>
      <point x="215" y="863" type="curve" smooth="yes"/>
      <point x="249" y="874"/>
      <point x="281" y="879"/>
      <point x="309" y="879" type="curve" smooth="yes"/>
      <point x="465" y="879"/>
      <point x="538" y="732"/>
      <point x="538" y="577" type="curve" smooth="yes"/>
      <point x="538" y="405"/>
      <point x="447" y="223"/>
      <point x="276" y="223" type="curve" smooth="yes"/>
      <point x="266" y="223" type="line"/>
      <point x="113" y="230"/>
      <point x="30" y="391"/>
      <point x="30" y="552" type="curve" smooth="yes"/>
      <point x="30" y="688"/>
      <point x="89" y="824"/>
    </contour>
    <contour>
      <point x="292" y="300" type="line"/>
      <point x="421" y="309"/>
      <point x="482" y="434"/>
      <point x="482" y="560" type="curve" smooth="yes"/>
      <point x="482" y="689"/>
      <point x="418" y="818"/>
      <point x="300" y="818" type="curve" smooth="yes"/>
      <point x="268" y="818"/>
      <point x="231" y="808"/>
      <point x="190" y="786" type="curve" smooth="yes"/>
      <point x="117" y="746"/>
      <point x="80" y="653"/>
      <point x="80" y="558" type="curve" smooth="yes"/>
      <point x="80" y="430"/>
      <point x="147" y="300"/>
      <point x="278" y="300" type="curve" smooth="yes"/>
    </contour>
  </outline>
</glyph>
<glyph name="three" format="1">
  <advance width="428"/>
  <unicode hex="0033"/>
  <outline>
    <contour>
      <point x="350" y="878" type="curve"/>
      <point x="363" y="842"/>
      <point x="385" y="816"/>
      <point x="398" y="780" type="curve"/>
      <point x="382" y="691"/>
      <point x="309" y="660"/>
      <point x="253" y="611" type="curve"/>
      <point x="335" y="574"/>
      <point x="372" y="487"/>
      <point x="372" y="379" type="curve" smooth="yes"/>
      <point x="372" y="330"/>
      <point x="364" y="277"/>
      <point x="350" y="222" type="curve"/>
      <point x="238" y="266"/>
      <point x="30" y="216"/>
      <point x="30" y="373" type="curve" smooth="yes"/>
      <point x="30" y="386"/>
      <point x="32" y="401"/>
      <point x="35" y="417" type="curve"/>
      <point x="108" y="401"/>
      <point x="117" y="321"/>
      <point x="180" y="295" type="curve"/>
      <point x="225" y="314"/>
      <point x="269" y="336"/>
      <point x="326" y="344" type="curve"/>
      <point x="329" y="361"/>
      <point x="330" y="376"/>
      <point x="330" y="390" type="curve" smooth="yes"/>
      <point x="330" y="505"/>
      <point x="240" y="531"/>
      <point x="156" y="562" type="curve"/>
      <point x="175" y="673"/>
      <point x="287" y="689"/>
      <point x="326" y="780" type="curve"/>
      <point x="308" y="801"/>
      <point x="288" y="808"/>
      <point x="267" y="808" type="curve" smooth="yes"/>
      <point x="213" y="808"/>
      <point x="152" y="761"/>
      <point x="103" y="761" type="curve" smooth="yes"/>
      <point x="87" y="761"/>
      <point x="72" y="766"/>
      <point x="59" y="780" type="curve"/>
      <point x="106" y="862"/>
      <point x="231" y="868"/>
    </contour>
  </outline>
</glyph>
<glyph name="quatre" format="1">
  <advance width="326"/>
  <unicode hex="0034"/>
  <outline>
    <contour>
      <point x="132" y="878" type="curve"/>
      <point x="140" y="861"/>
      <point x="143" y="842"/>
      <point x="143" y="824" type="curve" smooth="yes"/>
      <point x="143" y="737"/>
      <point x="71" y="641"/>
      <point x="71" y="538" type="curve" smooth="yes"/>
      <point x="71" y="531" type="line"/>
      <point x="78" y="504"/>
      <point x="107" y="498"/>
      <point x="112" y="469" type="curve"/>
      <point x="206" y="477"/>
      <point x="217" y="568"/>
      <point x="275" y="612" type="curve"/>
      <point x="271" y="568"/>
      <point x="266" y="500"/>
      <point x="266" y="432" type="curve" smooth="yes"/>
      <point x="266" y="349"/>
      <point x="273" y="265"/>
      <point x="296" y="224" type="curve"/>
      <point x="289" y="224" type="line" smooth="yes"/>
      <point x="196" y="224"/>
      <point x="225" y="346"/>
      <point x="214" y="429" type="curve"/>
      <point x="184" y="419"/>
      <point x="159" y="414"/>
      <point x="138" y="414" type="curve" smooth="yes"/>
      <point x="95" y="414"/>
      <point x="65" y="434"/>
      <point x="30" y="469" type="curve"/>
      <point x="49" y="621"/>
      <point x="65" y="775"/>
    </contour>
  </outline>
</glyph>
<glyph name="numéro 7" format="1">
  <advance width="489"/>
  <unicode hex="0037"/>
  <outline>
    <contour>
      <point x="384" y="861" type="curve"/>
      <point x="385" y="854"/>
      <point x="385" y="847"/>
      <point x="385" y="841" type="curve" smooth="yes"/>
      <point x="385" y="775"/>
      <point x="356" y="736"/>
      <point x="356" y="669" type="curve" smooth="yes"/>
      <point x="356" y="656"/>
      <point x="357" y="641"/>
      <point x="360" y="625" type="curve"/>
      <point x="365" y="609"/>
      <point x="369" y="603"/>
      <point x="374" y="603" type="curve" smooth="yes"/>
      <point x="388" y="603"/>
      <point x="403" y="654"/>
      <point x="436" y="654" type="curve" smooth="yes"/>
      <point x="442" y="654"/>
      <point x="448" y="653"/>
      <point x="455" y="649" type="curve"/>
      <point x="458" y="636"/>
      <point x="459" y="625"/>
      <point x="459" y="614" type="curve" smooth="yes"/>
      <point x="459" y="550"/>
      <point x="414" y="531"/>
      <point x="350" y="531" type="curve" smooth="yes"/>
      <point x="337" y="531" type="line"/>
      <point x="338" y="521"/>
      <point x="339" y="511"/>
      <point x="339" y="502" type="curve" smooth="yes"/>
      <point x="339" y="401"/>
      <point x="259" y="379"/>
      <point x="259" y="278" type="curve" smooth="yes"/>
      <point x="259" y="262"/>
      <point x="261" y="244"/>
      <point x="266" y="224" type="curve"/>
      <point x="228" y="241"/>
      <point x="215" y="267"/>
      <point x="215" y="298" type="curve" smooth="yes"/>
      <point x="215" y="357"/>
      <point x="263" y="432"/>
      <point x="266" y="484" type="curve"/>
      <point x="259" y="494"/>
      <point x="250" y="498"/>
      <point x="238" y="498" type="curve" smooth="yes"/>
      <point x="196" y="498"/>
      <point x="127" y="447"/>
      <point x="83" y="447" type="curve" smooth="yes"/>
      <point x="71" y="447"/>
      <point x="61" y="451"/>
      <point x="54" y="460" type="curve"/>
      <point x="99" y="533"/>
      <point x="199" y="551"/>
      <point x="290" y="578" type="curve"/>
      <point x="296" y="643"/>
      <point x="317" y="693"/>
      <point x="317" y="763" type="curve" smooth="yes"/>
      <point x="317" y="779"/>
      <point x="316" y="795"/>
      <point x="313" y="814" type="curve"/>
      <point x="182" y="811"/>
      <point x="138" y="722"/>
      <point x="30" y="696" type="curve"/>
      <point x="62" y="794"/>
      <point x="179" y="877"/>
      <point x="297" y="877" type="curve" smooth="yes"/>
      <point x="326" y="877"/>
      <point x="356" y="872"/>
    </contour>
  </outline>
</glyph>
<glyph name="huit" format="1">
  <advance width="458"/>
  <unicode hex="0038"/>
  <outline>
    <contour>
      <point x="428" y="874" type="curve"/>
      <point x="425" y="740"/>
      <point x="323" y="707"/>
      <point x="272" y="621" type="curve"/>
      <point x="314" y="540"/>
      <point x="386" y="487"/>
      <point x="409" y="387" type="curve"/>
      <point x="336" y="285"/>
      <point x="233" y="224"/>
      <point x="112" y="224" type="curve" smooth="yes"/>
      <point x="88" y="224"/>
      <point x="63" y="226"/>
      <point x="38" y="231" type="curve"/>
      <point x="33" y="250"/>
      <point x="30" y="268"/>
      <point x="30" y="286" type="curve" smooth="yes"/>
      <point x="30" y="424"/>
      <point x="174" y="513"/>
      <point x="214" y="640" type="curve"/>
      <point x="200" y="668"/>
      <point x="193" y="695"/>
      <point x="193" y="719" type="curve" smooth="yes"/>
      <point x="193" y="819"/>
      <point x="303" y="879"/>
      <point x="389" y="879" type="curve" smooth="yes"/>
      <point x="403" y="879"/>
      <point x="416" y="877"/>
    </contour>
    <contour>
      <point x="77" y="270" type="curve"/>
      <point x="210" y="280"/>
      <point x="289" y="344"/>
      <point x="370" y="406" type="curve"/>
      <point x="302" y="448"/>
      <point x="293" y="550"/>
      <point x="214" y="582" type="curve"/>
      <point x="191" y="463"/>
      <point x="76" y="435"/>
      <point x="76" y="294" type="curve" smooth="yes"/>
      <point x="76" y="286"/>
      <point x="76" y="278"/>
    </contour>
    <contour>
      <point x="272" y="679" type="curve"/>
      <point x="282" y="711"/>
      <point x="346" y="751"/>
      <point x="346" y="788" type="curve" smooth="yes"/>
      <point x="346" y="798"/>
      <point x="342" y="807"/>
      <point x="331" y="816" type="curve"/>
      <point x="298" y="793"/>
      <point x="239" y="759"/>
      <point x="239" y="723" type="curve" smooth="yes"/>
      <point x="239" y="709"/>
      <point x="249" y="694"/>
    </contour>
  </outline>
</glyph>
<glyph name="deux" format="1">
  <advance width="261"/>
  <unicode hex="003A"/>
  <outline>
    <contour>
      <point x="180" y="643" type="curve" smooth="yes"/>
      <point x="197" y="643"/>
      <point x="215" y="636"/>
      <point x="231" y="618" type="curve"/>
      <point x="231" y="586"/>
      <point x="209" y="576"/>
      <point x="206" y="548" type="curve"/>
      <point x="172" y="548"/>
      <point x="142" y="551"/>
      <point x="116" y="558" type="curve"/>
      <point x="117" y="608"/>
      <point x="146" y="642"/>
    </contour>
    <contour>
      <point x="117" y="418" type="curve" smooth="yes"/>
      <point x="135" y="418"/>
      <point x="155" y="415"/>
      <point x="176" y="408" type="curve"/>
      <point x="176" y="322" type="line"/>
      <point x="156" y="300"/>
      <point x="128" y="287"/>
      <point x="99" y="287" type="curve" smooth="yes"/>
      <point x="75" y="287"/>
      <point x="50" y="297"/>
      <point x="30" y="317" type="curve"/>
      <point x="30" y="327" type="line" smooth="yes"/>
      <point x="30" y="386"/>
      <point x="66" y="417"/>
    </contour>
  </outline>
</glyph>
<glyph name="arrobase" format="1">
  <advance width="544"/>
  <unicode hex="0040"/>
  <outline>
    <contour>
      <point x="444" y="486" type="curve"/>
      <point x="432" y="484"/>
      <point x="421" y="484"/>
      <point x="410" y="484" type="curve" smooth="yes"/>
      <point x="354" y="484"/>
      <point x="319" y="505"/>
      <point x="296" y="539" type="curve"/>
      <point x="270" y="512"/>
      <point x="239" y="492"/>
      <point x="205" y="492" type="curve" smooth="yes"/>
      <point x="185" y="492"/>
      <point x="165" y="499"/>
      <point x="143" y="515" type="curve"/>
      <point x="140" y="530"/>
      <point x="139" y="545"/>
      <point x="139" y="558" type="curve" smooth="yes"/>
      <point x="139" y="637"/>
      <point x="189" y="681"/>
      <point x="258" y="697" type="curve"/>
      <point x="291" y="690"/>
      <point x="309" y="668"/>
      <point x="334" y="654" type="curve"/>
      <point x="334" y="641" type="line" smooth="yes"/>
      <point x="334" y="586"/>
      <point x="346" y="544"/>
      <point x="401" y="544" type="curve"/>
      <point x="436" y="578"/>
      <point x="450" y="616"/>
      <point x="450" y="653" type="curve" smooth="yes"/>
      <point x="450" y="739"/>
      <point x="371" y="816"/>
      <point x="285" y="816" type="curve" smooth="yes"/>
      <point x="250" y="816"/>
      <point x="213" y="803"/>
      <point x="181" y="773" type="curve"/>
      <point x="125" y="726"/>
      <point x="88" y="609"/>
      <point x="88" y="499" type="curve" smooth="yes"/>
      <point x="88" y="419"/>
      <point x="107" y="344"/>
      <point x="152" y="300" type="curve"/>
      <point x="190" y="289"/>
      <point x="223" y="276"/>
      <point x="257" y="276" type="curve" smooth="yes"/>
      <point x="268" y="276"/>
      <point x="279" y="278"/>
      <point x="291" y="281" type="curve" smooth="yes"/>
      <point x="339" y="295"/>
      <point x="358" y="352"/>
      <point x="406" y="357" type="curve"/>
      <point x="412" y="350"/>
      <point x="414" y="342"/>
      <point x="414" y="334" type="curve" smooth="yes"/>
      <point x="414" y="309"/>
      <point x="389" y="284"/>
      <point x="382" y="262" type="curve"/>
      <point x="337" y="236"/>
      <point x="284" y="224"/>
      <point x="236" y="224" type="curve" smooth="yes"/>
      <point x="201" y="224"/>
      <point x="168" y="231"/>
      <point x="143" y="243" type="curve" smooth="yes"/>
      <point x="64" y="281"/>
      <point x="30" y="389"/>
      <point x="30" y="501" type="curve" smooth="yes"/>
      <point x="30" y="520"/>
      <point x="31" y="539"/>
      <point x="33" y="558" type="curve" smooth="yes"/>
      <point x="37" y="599"/>
      <point x="44" y="653"/>
      <point x="57" y="687" type="curve" smooth="yes"/>
      <point x="74" y="732"/>
      <point x="139" y="820"/>
      <point x="176" y="845" type="curve" smooth="yes"/>
      <point x="211" y="868"/>
      <point x="249" y="878"/>
      <point x="288" y="878" type="curve" smooth="yes"/>
      <point x="391" y="878"/>
      <point x="493" y="807"/>
      <point x="511" y="711" type="curve" smooth="yes"/>
      <point x="513" y="698"/>
      <point x="514" y="685"/>
      <point x="514" y="673" type="curve" smooth="yes"/>
      <point x="514" y="602"/>
      <point x="479" y="540"/>
    </contour>
    <contour>
      <point x="277" y="635" type="curve"/>
      <point x="272" y="637"/>
      <point x="266" y="638"/>
      <point x="261" y="638" type="curve" smooth="yes"/>
      <point x="219" y="638"/>
      <point x="178" y="587"/>
      <point x="171" y="539" type="curve"/>
      <point x="179" y="536"/>
      <point x="186" y="535"/>
      <point x="193" y="535" type="curve" smooth="yes"/>
      <point x="237" y="535"/>
      <point x="275" y="583"/>
    </contour>
  </outline>
</glyph>
<glyph name="amajuscule" format="1">
  <advance width="1475"/>
  <unicode hex="0041"/>
  <outline>
    <contour>
      <point x="1445" y="61" type="curve"/>
      <point x="1185" y="94"/>
      <point x="1151" y="305"/>
      <point x="993" y="417" type="curve"/>
      <point x="929" y="421"/>
      <point x="866" y="423"/>
      <point x="806" y="423" type="curve" smooth="yes"/>
      <point x="564" y="423"/>
      <point x="367" y="389"/>
      <point x="203" y="327" type="curve"/>
      <point x="99" y="300"/>
      <point x="215" y="100"/>
      <point x="77" y="100" type="curve" smooth="yes"/>
      <point x="65" y="100"/>
      <point x="49" y="102"/>
      <point x="33" y="105" type="curve"/>
      <point x="31" y="133"/>
      <point x="30" y="160"/>
      <point x="30" y="187" type="curve" smooth="yes"/>
      <point x="30" y="561"/>
      <point x="225" y="782"/>
      <point x="372" y="1038" type="curve"/>
      <point x="485" y="1038" type="line"/>
      <point x="752" y="996"/>
      <point x="807" y="789"/>
      <point x="936" y="639" type="curve"/>
      <point x="1089" y="433"/>
      <point x="1383" y="339"/>
    </contour>
    <contour>
      <point x="260" y="417" type="curve"/>
      <point x="374" y="519"/>
      <point x="598" y="535"/>
      <point x="824" y="549" type="curve"/>
      <point x="754" y="715"/>
      <point x="683" y="882"/>
      <point x="429" y="904" type="curve"/>
      <point x="421" y="763"/>
      <point x="227" y="615"/>
      <point x="227" y="493" type="curve" smooth="yes"/>
      <point x="227" y="466"/>
      <point x="236" y="441"/>
    </contour>
  </outline>
</glyph>
<glyph name="crochet" format="1">
  <advance width="392"/>
  <unicode hex="005D"/>
  <outline>
    <contour>
      <point x="293" y="853" type="curve"/>
      <point x="301" y="825"/>
      <point x="341" y="796"/>
      <point x="353" y="752" type="curve" smooth="yes"/>
      <point x="360" y="727"/>
      <point x="362" y="697"/>
      <point x="362" y="664" type="curve" smooth="yes"/>
      <point x="362" y="596"/>
      <point x="352" y="516"/>
      <point x="352" y="448" type="curve" smooth="yes"/>
      <point x="352" y="437"/>
      <point x="352" y="427"/>
      <point x="353" y="417" type="curve" smooth="yes"/>
      <point x="354" y="394"/>
      <point x="356" y="372"/>
      <point x="356" y="352" type="curve" smooth="yes"/>
      <point x="356" y="306"/>
      <point x="347" y="270"/>
      <point x="299" y="249" type="curve"/>
      <point x="274" y="258"/>
      <point x="241" y="260"/>
      <point x="206" y="260" type="curve" smooth="yes"/>
      <point x="153" y="260" type="line" smooth="yes"/>
      <point x="103" y="260"/>
      <point x="56" y="263"/>
      <point x="31" y="289" type="curve"/>
      <point x="30" y="293"/>
      <point x="30" y="297"/>
      <point x="30" y="300" type="curve" smooth="yes"/>
      <point x="30" y="315"/>
      <point x="36" y="323"/>
      <point x="38" y="336" type="curve"/>
      <point x="66" y="344"/>
      <point x="95" y="348"/>
      <point x="123" y="348" type="curve" smooth="yes"/>
      <point x="172" y="348"/>
      <point x="220" y="338"/>
      <point x="266" y="330" type="curve"/>
      <point x="271" y="412"/>
      <point x="286" y="510"/>
      <point x="286" y="601" type="curve" smooth="yes"/>
      <point x="286" y="662"/>
      <point x="279" y="719"/>
      <point x="259" y="766" type="curve"/>
      <point x="195" y="785"/>
      <point x="92" y="764"/>
      <point x="51" y="806" type="curve"/>
      <point x="64" y="849"/>
      <point x="113" y="859"/>
      <point x="168" y="859" type="curve" smooth="yes"/>
      <point x="211" y="859"/>
      <point x="257" y="853"/>
    </contour>
  </outline>
</glyph>
<glyph name="underscore" format="1">
  <advance width="606"/>
  <unicode hex="005F"/>
  <outline>
    <contour>
      <point x="576" y="220" type="curve"/>
      <point x="531" y="156"/>
      <point x="430" y="136"/>
      <point x="316" y="136" type="curve" smooth="yes"/>
      <point x="223" y="136"/>
      <point x="121" y="149"/>
      <point x="34" y="162" type="curve"/>
      <point x="31" y="173"/>
      <point x="30" y="185"/>
      <point x="30" y="198" type="curve" smooth="yes"/>
      <point x="30" y="210"/>
      <point x="31" y="222"/>
      <point x="34" y="236" type="curve"/>
      <point x="67" y="245"/>
      <point x="109" y="248"/>
      <point x="153" y="248" type="curve" smooth="yes"/>
      <point x="222" y="248"/>
      <point x="299" y="241"/>
      <point x="370" y="241" type="curve" smooth="yes"/>
      <point x="424" y="241"/>
      <point x="475" y="245"/>
      <point x="514" y="259" type="curve" smooth="yes"/>
      <point x="516" y="260"/>
      <point x="519" y="260"/>
      <point x="522" y="260" type="curve" smooth="yes"/>
      <point x="541" y="260"/>
      <point x="568" y="240"/>
    </contour>
  </outline>
</glyph>
<glyph name="aminuscule" format="1">
  <advance width="676"/>
  <unicode hex="0061"/>
  <outline>
    <contour>
      <point x="528" y="878" type="line"/>
      <point x="605" y="821"/>
      <point x="646" y="688"/>
      <point x="646" y="555" type="curve" smooth="yes"/>
      <point x="646" y="480"/>
      <point x="632" y="404"/>
      <point x="605" y="342" type="curve"/>
      <point x="493" y="291"/>
      <point x="397" y="225"/>
      <point x="235" y="225" type="curve" smooth="yes"/>
      <point x="218" y="225"/>
      <point x="201" y="226"/>
      <point x="183" y="227" type="curve"/>
      <point x="183" y="235"/>
      <point x="182" y="243"/>
      <point x="182" y="251" type="curve" smooth="yes"/>
      <point x="182" y="499"/>
      <point x="350" y="578"/>
      <point x="566" y="610" type="curve"/>
      <point x="566" y="622" type="line" smooth="yes"/>
      <point x="566" y="707"/>
      <point x="505" y="732"/>
      <point x="490" y="802" type="curve"/>
      <point x="470" y="807"/>
      <point x="452" y="809"/>
      <point x="437" y="809" type="curve" smooth="yes"/>
      <point x="363" y="809"/>
      <point x="335" y="763"/>
      <point x="262" y="763" type="curve" smooth="yes"/>
      <point x="260" y="763" type="line"/>
      <point x="256" y="763" type="line" smooth="yes"/>
      <point x="159" y="763"/>
      <point x="141" y="620"/>
      <point x="81" y="620" type="curve" smooth="yes"/>
      <point x="67" y="620"/>
      <point x="50" y="628"/>
      <point x="30" y="648" type="curve"/>
      <point x="96" y="821"/>
      <point x="276" y="878"/>
      <point x="515" y="878" type="curve" smooth="yes"/>
    </contour>
    <contour>
      <point x="260" y="304" type="curve"/>
      <point x="271" y="303"/>
      <point x="281" y="303"/>
      <point x="291" y="303" type="curve" smooth="yes"/>
      <point x="422" y="303"/>
      <point x="502" y="352"/>
      <point x="528" y="457" type="curve"/>
      <point x="477" y="457"/>
      <point x="493" y="524"/>
      <point x="451" y="533" type="curve"/>
      <point x="394" y="450"/>
      <point x="260" y="445"/>
    </contour>
  </outline>
</glyph>
<glyph name="b" format="1">
  <advance width="759"/>
  <unicode hex="0062"/>
  <outline>
    <contour>
      <point x="74" y="1145" type="curve"/>
      <point x="234" y="1102"/>
      <point x="192" y="859"/>
      <point x="204" y="669" type="curve"/>
      <point x="300" y="709"/>
      <point x="395" y="737"/>
      <point x="482" y="737" type="curve" smooth="yes"/>
      <point x="573" y="737"/>
      <point x="655" y="706"/>
      <point x="723" y="626" type="curve"/>
      <point x="727" y="592"/>
      <point x="729" y="561"/>
      <point x="729" y="531" type="curve" smooth="yes"/>
      <point x="729" y="330"/>
      <point x="630" y="230"/>
      <point x="429" y="230" type="curve" smooth="yes"/>
      <point x="400" y="230"/>
      <point x="368" y="232"/>
      <point x="334" y="236" type="curve"/>
      <point x="337" y="402"/>
      <point x="637" y="271"/>
      <point x="637" y="440" type="curve" smooth="yes"/>
      <point x="637" y="452" type="line"/>
      <point x="623" y="553"/>
      <point x="593" y="639"/>
      <point x="507" y="669" type="curve"/>
      <point x="301" y="630"/>
      <point x="159" y="525"/>
      <point x="117" y="322" type="curve"/>
      <point x="52" y="340"/>
      <point x="30" y="386"/>
      <point x="30" y="441" type="curve" smooth="yes"/>
      <point x="30" y="534"/>
      <point x="93" y="652"/>
      <point x="117" y="712" type="curve"/>
      <point x="83" y="798"/>
      <point x="71" y="907"/>
      <point x="71" y="1027" type="curve" smooth="yes"/>
      <point x="71" y="1065"/>
      <point x="72" y="1105"/>
    </contour>
  </outline>
</glyph>
<glyph name="dminuscule" format="1">
  <advance width="776"/>
  <unicode hex="0064"/>
  <outline>
    <contour>
      <point x="508" y="1182" type="curve"/>
      <point x="630" y="1163"/>
      <point x="646" y="1038"/>
      <point x="646" y="897" type="curve" smooth="yes"/>
      <point x="646" y="846"/>
      <point x="644" y="793"/>
      <point x="644" y="742" type="curve" smooth="yes"/>
      <point x="644" y="617"/>
      <point x="657" y="504"/>
      <point x="746" y="467" type="curve"/>
      <point x="740" y="436"/>
      <point x="704" y="421"/>
      <point x="670" y="421" type="curve" smooth="yes"/>
      <point x="636" y="421"/>
      <point x="603" y="436"/>
      <point x="603" y="467" type="curve"/>
      <point x="461" y="382"/>
      <point x="397" y="221"/>
      <point x="171" y="221" type="curve" smooth="yes"/>
      <point x="143" y="221"/>
      <point x="112" y="224"/>
      <point x="79" y="229" type="curve"/>
      <point x="45" y="296"/>
      <point x="30" y="359"/>
      <point x="30" y="419" type="curve" smooth="yes"/>
      <point x="30" y="646"/>
      <point x="248" y="813"/>
      <point x="460" y="848" type="curve"/>
      <point x="460" y="893"/>
      <point x="458" y="940"/>
      <point x="458" y="985" type="curve" smooth="yes"/>
      <point x="458" y="1067"/>
      <point x="465" y="1143"/>
    </contour>
    <contour>
      <point x="127" y="324" type="line"/>
      <point x="147" y="322"/>
      <point x="167" y="321"/>
      <point x="185" y="321" type="curve" smooth="yes"/>
      <point x="421" y="321"/>
      <point x="487" y="491"/>
      <point x="508" y="705" type="curve"/>
      <point x="505" y="705" type="line" smooth="yes"/>
      <point x="253" y="705"/>
      <point x="127" y="579"/>
      <point x="127" y="327" type="curve" smooth="yes"/>
    </contour>
  </outline>
</glyph>
<glyph name="e.minuscule" format="1">
  <advance width="913"/>
  <unicode hex="0065"/>
  <outline>
    <contour>
      <point x="713" y="855" type="curve"/>
      <point x="712" y="845"/>
      <point x="711" y="836"/>
      <point x="711" y="828" type="curve" smooth="yes"/>
      <point x="711" y="779"/>
      <point x="733" y="752"/>
      <point x="770" y="741" type="curve"/>
      <point x="715" y="587"/>
      <point x="627" y="466"/>
      <point x="428" y="456" type="curve"/>
      <point x="435" y="358"/>
      <point x="522" y="339"/>
      <point x="627" y="339" type="curve" smooth="yes"/>
      <point x="690" y="339"/>
      <point x="759" y="346"/>
      <point x="822" y="346" type="curve" smooth="yes"/>
      <point x="843" y="346"/>
      <point x="864" y="345"/>
      <point x="883" y="343" type="curve"/>
      <point x="876" y="244"/>
      <point x="788" y="226"/>
      <point x="682" y="226" type="curve" smooth="yes"/>
      <point x="620" y="226"/>
      <point x="552" y="232"/>
      <point x="490" y="232" type="curve" smooth="yes"/>
      <point x="468" y="232"/>
      <point x="448" y="231"/>
      <point x="428" y="229" type="curve"/>
      <point x="363" y="410"/>
      <point x="30" y="323"/>
      <point x="30" y="569" type="curve" smooth="yes"/>
      <point x="30" y="570" type="line"/>
      <point x="70" y="546"/>
      <point x="103" y="535"/>
      <point x="132" y="535" type="curve" smooth="yes"/>
      <point x="299" y="535"/>
      <point x="321" y="878"/>
      <point x="584" y="878" type="curve" smooth="yes"/>
      <point x="622" y="878"/>
      <point x="664" y="871"/>
    </contour>
    <contour>
      <point x="371" y="570" type="curve"/>
      <point x="379" y="568"/>
      <point x="387" y="567"/>
      <point x="395" y="567" type="curve" smooth="yes"/>
      <point x="478" y="567"/>
      <point x="582" y="656"/>
      <point x="582" y="707" type="curve" smooth="yes"/>
      <point x="582" y="724"/>
      <point x="570" y="737"/>
      <point x="542" y="741" type="curve"/>
      <point x="536" y="639"/>
      <point x="370" y="695"/>
      <point x="370" y="586" type="curve" smooth="yes"/>
      <point x="370" y="581"/>
      <point x="370" y="576"/>
    </contour>
  </outline>
</glyph>
<glyph name="f.minuscule" format="1">
  <advance width="535"/>
  <unicode hex="0066"/>
  <outline>
    <contour>
      <point x="435" y="1133" type="curve"/>
      <point x="464" y="1106"/>
      <point x="455" y="1040"/>
      <point x="502" y="1031" type="curve"/>
      <point x="504" y="1014"/>
      <point x="505" y="999"/>
      <point x="505" y="984" type="curve" smooth="yes"/>
      <point x="505" y="875"/>
      <point x="451" y="821"/>
      <point x="367" y="795" type="curve"/>
      <point x="331" y="800"/>
      <point x="317" y="807"/>
      <point x="317" y="819" type="curve" smooth="yes"/>
      <point x="317" y="851"/>
      <point x="418" y="910"/>
      <point x="418" y="1000" type="curve" smooth="yes"/>
      <point x="418" y="1020"/>
      <point x="413" y="1042"/>
      <point x="401" y="1065" type="curve"/>
      <point x="377" y="1072"/>
      <point x="357" y="1075"/>
      <point x="340" y="1075" type="curve" smooth="yes"/>
      <point x="245" y="1075"/>
      <point x="244" y="981"/>
      <point x="199" y="930" type="curve"/>
      <point x="196" y="898"/>
      <point x="195" y="867"/>
      <point x="195" y="838" type="curve" smooth="yes"/>
      <point x="195" y="721"/>
      <point x="214" y="623"/>
      <point x="232" y="525" type="curve"/>
      <point x="255" y="458"/>
      <point x="335" y="448"/>
      <point x="367" y="390" type="curve"/>
      <point x="369" y="356"/>
      <point x="370" y="323"/>
      <point x="370" y="291" type="curve" smooth="yes"/>
      <point x="370" y="143"/>
      <point x="348" y="17"/>
      <point x="300" y="-82" type="curve"/>
      <point x="134" y="10"/>
      <point x="277" y="412"/>
      <point x="30" y="424" type="curve"/>
      <point x="258" y="537"/>
      <point x="-13" y="1149"/>
      <point x="328" y="1149" type="curve" smooth="yes"/>
      <point x="358" y="1149"/>
      <point x="394" y="1144"/>
    </contour>
    <contour>
      <point x="300" y="188" type="curve"/>
      <point x="300" y="195" type="line" smooth="yes"/>
      <point x="300" y="219"/>
      <point x="301" y="244"/>
      <point x="301" y="268" type="curve" smooth="yes"/>
      <point x="301" y="332"/>
      <point x="293" y="387"/>
      <point x="232" y="390" type="curve"/>
      <point x="263" y="331"/>
      <point x="244" y="222"/>
    </contour>
  </outline>
</glyph>
<glyph name="h.minuscule" format="1">
  <advance width="609"/>
  <unicode hex="0068"/>
  <outline>
    <contour>
      <point x="74" y="1180" type="curve"/>
      <point x="81" y="1181"/>
      <point x="87" y="1181"/>
      <point x="93" y="1181" type="curve" smooth="yes"/>
      <point x="126" y="1181"/>
      <point x="143" y="1167"/>
      <point x="150" y="1142" type="curve"/>
      <point x="118" y="1020"/>
      <point x="110" y="876"/>
      <point x="110" y="722" type="curve" smooth="yes"/>
      <point x="110" y="671"/>
      <point x="110" y="619"/>
      <point x="112" y="566" type="curve"/>
      <point x="243" y="596"/>
      <point x="242" y="758"/>
      <point x="404" y="758" type="curve" smooth="yes"/>
      <point x="419" y="758" type="line"/>
      <point x="534" y="705"/>
      <point x="579" y="581"/>
      <point x="579" y="413" type="curve" smooth="yes"/>
      <point x="579" y="377"/>
      <point x="577" y="338"/>
      <point x="573" y="298" type="curve"/>
      <point x="427" y="319"/>
      <point x="516" y="573"/>
      <point x="419" y="643" type="curve"/>
      <point x="408" y="643" type="line" smooth="yes"/>
      <point x="156" y="643"/>
      <point x="279" y="268"/>
      <point x="74" y="221" type="curve"/>
      <point x="63" y="405"/>
      <point x="30" y="629"/>
      <point x="30" y="838" type="curve" smooth="yes"/>
      <point x="30" y="960"/>
      <point x="41" y="1078"/>
    </contour>
  </outline>
</glyph>
<glyph name="j.minuscule" format="1">
  <advance width="297"/>
  <unicode hex="006A"/>
  <outline>
    <contour>
      <point x="213" y="928" type="curve"/>
      <point x="265" y="928" type="line"/>
      <point x="266" y="922"/>
      <point x="267" y="918"/>
      <point x="267" y="913" type="curve" smooth="yes"/>
      <point x="267" y="874"/>
      <point x="224" y="878"/>
      <point x="187" y="876" type="curve"/>
      <point x="192" y="897"/>
      <point x="213" y="902"/>
    </contour>
    <contour>
      <point x="161" y="668" type="curve"/>
      <point x="184" y="656"/>
      <point x="208" y="645"/>
      <point x="213" y="616" type="curve"/>
      <point x="209" y="590"/>
      <point x="207" y="564"/>
      <point x="207" y="537" type="curve" smooth="yes"/>
      <point x="207" y="417"/>
      <point x="242" y="287"/>
      <point x="242" y="179" type="curve" smooth="yes"/>
      <point x="242" y="101"/>
      <point x="223" y="35"/>
      <point x="161" y="-8" type="curve"/>
      <point x="59" y="4"/>
      <point x="30" y="89"/>
      <point x="30" y="204" type="curve" smooth="yes"/>
      <point x="30" y="219"/>
      <point x="30" y="236"/>
      <point x="31" y="252" type="curve"/>
      <point x="83" y="208"/>
      <point x="72" y="103"/>
      <point x="135" y="70" type="curve"/>
      <point x="174" y="106"/>
      <point x="187" y="155"/>
      <point x="187" y="212" type="curve" smooth="yes"/>
      <point x="187" y="321"/>
      <point x="139" y="455"/>
      <point x="139" y="564" type="curve" smooth="yes"/>
      <point x="139" y="602"/>
      <point x="145" y="638"/>
    </contour>
  </outline>
</glyph>
<glyph name="l.minuscule" format="1">
  <advance width="231"/>
  <unicode hex="006C"/>
  <outline>
    <contour>
      <point x="195" y="1140" type="curve"/>
      <point x="199" y="1108"/>
      <point x="201" y="1071"/>
      <point x="201" y="1029" type="curve" smooth="yes"/>
      <point x="201" y="803"/>
      <point x="147" y="454"/>
      <point x="119" y="224" type="curve"/>
      <point x="117" y="224" type="line" smooth="yes"/>
      <point x="46" y="224"/>
      <point x="30" y="287"/>
      <point x="30" y="360" type="curve" smooth="yes"/>
      <point x="30" y="419"/>
      <point x="40" y="484"/>
      <point x="42" y="529" type="curve" smooth="yes"/>
      <point x="49" y="733"/>
      <point x="123" y="1002"/>
    </contour>
  </outline>
</glyph>
<glyph name="m.minuscule" format="1">
  <advance width="1040"/>
  <unicode hex="006D"/>
  <outline>
    <contour>
      <point x="932" y="747" type="curve"/>
      <point x="955" y="640"/>
      <point x="1010" y="572"/>
      <point x="1010" y="435" type="curve" smooth="yes"/>
      <point x="1010" y="383"/>
      <point x="1002" y="322"/>
      <point x="982" y="245" type="curve"/>
      <point x="847" y="272"/>
      <point x="986" y="642"/>
      <point x="830" y="642" type="curve" smooth="yes"/>
      <point x="822" y="642"/>
      <point x="814" y="641"/>
      <point x="805" y="639" type="curve"/>
      <point x="802" y="640"/>
      <point x="799" y="640"/>
      <point x="796" y="640" type="curve" smooth="yes"/>
      <point x="729" y="640"/>
      <point x="761" y="422"/>
      <point x="730" y="339" type="curve"/>
      <point x="631" y="437"/>
      <point x="615" y="640"/>
      <point x="516" y="738" type="curve"/>
      <point x="513" y="738" type="line" smooth="yes"/>
      <point x="420" y="738"/>
      <point x="417" y="540"/>
      <point x="396" y="381" type="curve"/>
      <point x="389" y="380"/>
      <point x="382" y="379"/>
      <point x="376" y="379" type="curve" smooth="yes"/>
      <point x="259" y="379"/>
      <point x="339" y="626"/>
      <point x="241" y="649" type="curve"/>
      <point x="234" y="649" type="line" smooth="yes"/>
      <point x="119" y="649"/>
      <point x="157" y="308"/>
      <point x="75" y="236" type="curve"/>
      <point x="43" y="274"/>
      <point x="30" y="322"/>
      <point x="30" y="374" type="curve" smooth="yes"/>
      <point x="30" y="514"/>
      <point x="123" y="685"/>
      <point x="182" y="780" type="curve"/>
      <point x="238" y="768"/>
      <point x="323" y="790"/>
      <point x="323" y="707" type="curve" smooth="yes"/>
      <point x="323" y="700" type="line"/>
      <point x="384" y="803"/>
      <point x="440" y="836"/>
      <point x="495" y="836" type="curve" smooth="yes"/>
      <point x="597" y="836"/>
      <point x="697" y="723"/>
      <point x="829" y="723" type="curve" smooth="yes"/>
      <point x="861" y="723"/>
      <point x="895" y="730"/>
    </contour>
  </outline>
</glyph>
<glyph name="o.minuscule" format="1">
  <advance width="626"/>
  <unicode hex="006F"/>
  <outline>
    <contour>
      <point x="430" y="749" type="curve"/>
      <point x="511" y="660"/>
      <point x="573" y="559"/>
      <point x="573" y="454" type="curve" smooth="yes"/>
      <point x="573" y="386"/>
      <point x="548" y="317"/>
      <point x="485" y="250" type="curve"/>
      <point x="443" y="245"/>
      <point x="404" y="242"/>
      <point x="368" y="242" type="curve" smooth="yes"/>
      <point x="220" y="242"/>
      <point x="114" y="285"/>
      <point x="42" y="361" type="curve"/>
      <point x="34" y="390"/>
      <point x="30" y="420"/>
      <point x="30" y="449" type="curve" smooth="yes"/>
      <point x="30" y="663"/>
      <point x="238" y="855"/>
      <point x="406" y="855" type="curve" smooth="yes"/>
      <point x="489" y="855"/>
      <point x="563" y="808"/>
      <point x="596" y="693" type="curve"/>
      <point x="587" y="691"/>
      <point x="579" y="691"/>
      <point x="571" y="691" type="curve" smooth="yes"/>
      <point x="505" y="691"/>
      <point x="494" y="746"/>
    </contour>
    <contour>
      <point x="153" y="416" type="curve"/>
      <point x="203" y="380"/>
      <point x="267" y="355"/>
      <point x="354" y="355" type="curve" smooth="yes"/>
      <point x="378" y="355"/>
      <point x="403" y="357"/>
      <point x="430" y="361" type="curve"/>
      <point x="434" y="390"/>
      <point x="436" y="416"/>
      <point x="436" y="440" type="curve" smooth="yes"/>
      <point x="436" y="582"/>
      <point x="365" y="653"/>
      <point x="263" y="693" type="curve"/>
      <point x="243" y="603"/>
      <point x="143" y="594"/>
      <point x="143" y="484" type="curve" smooth="yes"/>
      <point x="143" y="465"/>
      <point x="146" y="442"/>
    </contour>
  </outline>
</glyph>
<glyph name="p.minuscule" format="1">
  <advance width="721"/>
  <unicode hex="0070"/>
  <outline>
    <contour>
      <point x="687" y="775" type="curve"/>
      <point x="690" y="752"/>
      <point x="691" y="731"/>
      <point x="691" y="711" type="curve" smooth="yes"/>
      <point x="691" y="444"/>
      <point x="448" y="422"/>
      <point x="232" y="371" type="curve"/>
      <point x="246" y="166"/>
      <point x="319" y="20"/>
      <point x="333" y="-185" type="curve"/>
      <point x="85" y="-130"/>
      <point x="174" y="262"/>
      <point x="81" y="472" type="curve"/>
      <point x="92" y="469"/>
      <point x="102" y="468"/>
      <point x="111" y="468" type="curve" smooth="yes"/>
      <point x="169" y="468"/>
      <point x="177" y="519"/>
      <point x="182" y="573" type="curve"/>
      <point x="176" y="595"/>
      <point x="168" y="602"/>
      <point x="157" y="602" type="curve" smooth="yes"/>
      <point x="135" y="602"/>
      <point x="103" y="570"/>
      <point x="55" y="570" type="curve" smooth="yes"/>
      <point x="47" y="570"/>
      <point x="39" y="571"/>
      <point x="30" y="573" type="curve"/>
      <point x="78" y="725"/>
      <point x="272" y="876"/>
      <point x="458" y="876" type="curve" smooth="yes"/>
      <point x="540" y="876"/>
      <point x="621" y="847"/>
    </contour>
    <contour>
      <point x="283" y="523" type="line"/>
      <point x="442" y="532"/>
      <point x="584" y="558"/>
      <point x="586" y="725" type="curve"/>
      <point x="551" y="731"/>
      <point x="519" y="734"/>
      <point x="490" y="734" type="curve" smooth="yes"/>
      <point x="355" y="734"/>
      <point x="283" y="672"/>
      <point x="283" y="537" type="curve" smooth="yes"/>
    </contour>
  </outline>
</glyph>
<glyph name="q.minuscule" format="1">
  <advance width="718"/>
  <unicode hex="0071"/>
  <outline>
    <contour>
      <point x="688" y="716" type="curve"/>
      <point x="621" y="760"/>
      <point x="546" y="780"/>
      <point x="474" y="780" type="curve" smooth="yes"/>
      <point x="311" y="780"/>
      <point x="158" y="677"/>
      <point x="114" y="511" type="curve"/>
      <point x="160" y="475"/>
      <point x="203" y="461"/>
      <point x="245" y="461" type="curve" smooth="yes"/>
      <point x="380" y="461"/>
      <point x="494" y="609"/>
      <point x="606" y="634" type="curve"/>
      <point x="593" y="549"/>
      <point x="589" y="468"/>
      <point x="589" y="391" type="curve" smooth="yes"/>
      <point x="589" y="222"/>
      <point x="610" y="72"/>
      <point x="610" y="-58" type="curve" smooth="yes"/>
      <point x="610" y="-88"/>
      <point x="609" y="-117"/>
      <point x="606" y="-145" type="curve"/>
      <point x="500" y="-122"/>
      <point x="481" y="-11"/>
      <point x="481" y="119" type="curve" smooth="yes"/>
      <point x="481" y="192"/>
      <point x="487" y="271"/>
      <point x="487" y="344" type="curve" smooth="yes"/>
      <point x="487" y="374"/>
      <point x="486" y="402"/>
      <point x="483" y="429" type="curve"/>
      <point x="479" y="433"/>
      <point x="472" y="434"/>
      <point x="462" y="434" type="curve" smooth="yes"/>
      <point x="411" y="434"/>
      <point x="290" y="389"/>
      <point x="187" y="389" type="curve" smooth="yes"/>
      <point x="120" y="389"/>
      <point x="61" y="408"/>
      <point x="32" y="470" type="curve"/>
      <point x="31" y="480"/>
      <point x="30" y="490"/>
      <point x="30" y="500" type="curve" smooth="yes"/>
      <point x="30" y="699"/>
      <point x="269" y="879"/>
      <point x="463" y="879" type="curve" smooth="yes"/>
      <point x="562" y="879"/>
      <point x="650" y="832"/>
    </contour>
  </outline>
</glyph>
<glyph name="s.minuscule" format="1">
  <advance width="519"/>
  <unicode hex="0073"/>
  <outline>
    <contour>
      <point x="73" y="878" type="curve"/>
      <point x="215" y="847"/>
      <point x="398" y="857"/>
      <point x="419" y="704" type="curve"/>
      <point x="402" y="700"/>
      <point x="387" y="698"/>
      <point x="374" y="698" type="curve" smooth="yes"/>
      <point x="299" y="698"/>
      <point x="280" y="754"/>
      <point x="205" y="754" type="curve" smooth="yes"/>
      <point x="192" y="754"/>
      <point x="177" y="752"/>
      <point x="160" y="748" type="curve"/>
      <point x="208" y="562"/>
      <point x="489" y="506"/>
      <point x="489" y="328" type="curve" smooth="yes"/>
      <point x="489" y="298"/>
      <point x="481" y="266"/>
      <point x="463" y="228" type="curve"/>
      <point x="446" y="230"/>
      <point x="427" y="231"/>
      <point x="407" y="231" type="curve" smooth="yes"/>
      <point x="351" y="231"/>
      <point x="288" y="224"/>
      <point x="232" y="224" type="curve" smooth="yes"/>
      <point x="143" y="224"/>
      <point x="71" y="242"/>
      <point x="71" y="331" type="curve" smooth="yes"/>
      <point x="71" y="339"/>
      <point x="72" y="348"/>
      <point x="73" y="358" type="curve"/>
      <point x="156" y="347"/>
      <point x="212" y="308"/>
      <point x="306" y="308" type="curve" smooth="yes"/>
      <point x="327" y="308"/>
      <point x="350" y="310"/>
      <point x="376" y="315" type="curve"/>
      <point x="360" y="525"/>
      <point x="30" y="557"/>
      <point x="30" y="746" type="curve" smooth="yes"/>
      <point x="30" y="783"/>
      <point x="43" y="826"/>
    </contour>
  </outline>
</glyph>
<glyph name="u.minuscule" format="1">
  <advance width="1051"/>
  <unicode hex="0075"/>
  <outline>
    <contour>
      <point x="51" y="699" type="curve"/>
      <point x="65" y="701"/>
      <point x="77" y="702"/>
      <point x="88" y="702" type="curve" smooth="yes"/>
      <point x="152" y="702"/>
      <point x="166" y="672"/>
      <point x="166" y="629" type="curve" smooth="yes"/>
      <point x="166" y="598"/>
      <point x="159" y="561"/>
      <point x="159" y="523" type="curve" smooth="yes"/>
      <point x="159" y="474"/>
      <point x="171" y="425"/>
      <point x="224" y="388" type="curve"/>
      <point x="241" y="387"/>
      <point x="257" y="386"/>
      <point x="272" y="386" type="curve" smooth="yes"/>
      <point x="563" y="386"/>
      <point x="504" y="625"/>
      <point x="681" y="703" type="curve"/>
      <point x="697" y="514"/>
      <point x="770" y="407"/>
      <point x="916" y="407" type="curve" smooth="yes"/>
      <point x="948" y="407"/>
      <point x="982" y="412"/>
      <point x="1021" y="422" type="curve"/>
      <point x="1005" y="342"/>
      <point x="912" y="285"/>
      <point x="827" y="285" type="curve" smooth="yes"/>
      <point x="757" y="285"/>
      <point x="693" y="323"/>
      <point x="678" y="415" type="curve"/>
      <point x="588" y="321"/>
      <point x="465" y="276"/>
      <point x="351" y="276" type="curve" smooth="yes"/>
      <point x="181" y="276"/>
      <point x="30" y="376"/>
      <point x="30" y="567" type="curve" smooth="yes"/>
      <point x="30" y="607"/>
      <point x="36" y="651"/>
    </contour>
  </outline>
</glyph>
<glyph name="w.minuscule" format="1">
  <advance width="1020"/>
  <unicode hex="0077"/>
  <outline>
    <contour>
      <point x="31" y="799" type="curve"/>
      <point x="171" y="731"/>
      <point x="183" y="536"/>
      <point x="271" y="416" type="curve"/>
      <point x="396" y="424"/>
      <point x="340" y="611"/>
      <point x="473" y="611" type="curve" smooth="yes"/>
      <point x="484" y="611"/>
      <point x="496" y="610"/>
      <point x="510" y="607" type="curve"/>
      <point x="586" y="507"/>
      <point x="621" y="368"/>
      <point x="796" y="368" type="curve" smooth="yes"/>
      <point x="798" y="368" type="line"/>
      <point x="805" y="368" type="line" smooth="yes"/>
      <point x="843" y="368"/>
      <point x="852" y="395"/>
      <point x="852" y="433" type="curve" smooth="yes"/>
      <point x="852" y="474"/>
      <point x="841" y="528"/>
      <point x="841" y="569" type="curve" smooth="yes"/>
      <point x="841" y="584"/>
      <point x="842" y="596"/>
      <point x="846" y="607" type="curve"/>
      <point x="852" y="607" type="line" smooth="yes"/>
      <point x="994" y="607"/>
      <point x="989" y="461"/>
      <point x="990" y="320" type="curve"/>
      <point x="951" y="279"/>
      <point x="859" y="291"/>
      <point x="846" y="224" type="curve"/>
      <point x="703" y="257"/>
      <point x="552" y="282"/>
      <point x="510" y="416" type="curve"/>
      <point x="405" y="402"/>
      <point x="418" y="270"/>
      <point x="300" y="270" type="curve" smooth="yes"/>
      <point x="291" y="270"/>
      <point x="282" y="270"/>
      <point x="271" y="272" type="curve"/>
      <point x="178" y="421"/>
      <point x="30" y="515"/>
      <point x="30" y="757" type="curve" smooth="yes"/>
      <point x="30" y="770"/>
      <point x="30" y="785"/>
    </contour>
  </outline>
</glyph>
<glyph name="x.minuscule" format="1">
  <advance width="713"/>
  <unicode hex="0078"/>
  <outline>
    <contour>
      <point x="30" y="880" type="line"/>
      <point x="140" y="772"/>
      <point x="294" y="709"/>
      <point x="378" y="575" type="curve"/>
      <point x="493" y="601"/>
      <point x="487" y="749"/>
      <point x="628" y="749" type="curve" smooth="yes"/>
      <point x="639" y="749" type="line"/>
      <point x="640" y="739"/>
      <point x="641" y="730"/>
      <point x="641" y="722" type="curve" smooth="yes"/>
      <point x="641" y="614"/>
      <point x="521" y="627"/>
      <point x="509" y="531" type="curve"/>
      <point x="535" y="416"/>
      <point x="683" y="422"/>
      <point x="683" y="281" type="curve" smooth="yes"/>
      <point x="683" y="270" type="line"/>
      <point x="614" y="240"/>
      <point x="517" y="225"/>
      <point x="421" y="225" type="curve" smooth="yes"/>
      <point x="325" y="225"/>
      <point x="229" y="240"/>
      <point x="160" y="270" type="curve"/>
      <point x="175" y="372"/>
      <point x="205" y="458"/>
      <point x="291" y="488" type="curve"/>
      <point x="237" y="646"/>
      <point x="30" y="650"/>
      <point x="30" y="862" type="curve" smooth="yes"/>
    </contour>
    <contour>
      <point x="291" y="313" type="curve"/>
      <point x="303" y="317"/>
      <point x="317" y="318"/>
      <point x="333" y="318" type="curve" smooth="yes"/>
      <point x="377" y="318"/>
      <point x="432" y="307"/>
      <point x="476" y="307" type="curve" smooth="yes"/>
      <point x="518" y="307"/>
      <point x="550" y="317"/>
      <point x="552" y="357" type="curve"/>
      <point x="513" y="404"/>
      <point x="465" y="429"/>
      <point x="420" y="429" type="curve" smooth="yes"/>
      <point x="365" y="429"/>
      <point x="315" y="392"/>
    </contour>
  </outline>
</glyph>
<glyph name="z.minuscule" format="1">
  <advance width="927"/>
  <unicode hex="007A"/>
  <outline>
    <contour>
      <point x="859" y="875" type="line"/>
      <point x="865" y="852"/>
      <point x="868" y="829"/>
      <point x="868" y="807" type="curve" smooth="yes"/>
      <point x="868" y="608"/>
      <point x="618" y="476"/>
      <point x="445" y="385" type="curve"/>
      <point x="474" y="356"/>
      <point x="506" y="346"/>
      <point x="542" y="346" type="curve" smooth="yes"/>
      <point x="622" y="346"/>
      <point x="716" y="396"/>
      <point x="818" y="396" type="curve" smooth="yes"/>
      <point x="844" y="396"/>
      <point x="870" y="393"/>
      <point x="897" y="385" type="curve"/>
      <point x="884" y="259"/>
      <point x="694" y="290"/>
      <point x="595" y="272" type="curve" smooth="yes"/>
      <point x="503" y="256"/>
      <point x="424" y="226"/>
      <point x="334" y="226" type="curve" smooth="yes"/>
      <point x="309" y="226"/>
      <point x="283" y="229"/>
      <point x="256" y="234" type="curve"/>
      <point x="296" y="521"/>
      <point x="651" y="492"/>
      <point x="746" y="724" type="curve"/>
      <point x="712" y="754"/>
      <point x="672" y="766"/>
      <point x="629" y="766" type="curve" smooth="yes"/>
      <point x="518" y="766"/>
      <point x="389" y="692"/>
      <point x="294" y="686" type="curve"/>
      <point x="240" y="677"/>
      <point x="280" y="574"/>
      <point x="218" y="573" type="curve"/>
      <point x="200" y="570"/>
      <point x="183" y="569"/>
      <point x="167" y="569" type="curve" smooth="yes"/>
      <point x="108" y="569"/>
      <point x="65" y="586"/>
      <point x="30" y="611" type="curve"/>
      <point x="220" y="779"/>
      <point x="483" y="875"/>
      <point x="842" y="875" type="curve" smooth="yes"/>
    </contour>
  </outline>
</glyph>
<glyph name="Le" format="1">
  <advance width="1293"/>
  <unicode hex="00A5"/>
  <outline>
    <contour>
      <point x="1204" y="1151" type="curve"/>
      <point x="1153" y="991"/>
      <point x="1001" y="932"/>
      <point x="933" y="790" type="curve"/>
      <point x="957" y="764"/>
      <point x="984" y="755"/>
      <point x="1013" y="755" type="curve" smooth="yes"/>
      <point x="1076" y="755"/>
      <point x="1148" y="795"/>
      <point x="1221" y="795" type="curve" smooth="yes"/>
      <point x="1235" y="795"/>
      <point x="1250" y="794"/>
      <point x="1264" y="790" type="curve"/>
      <point x="1234" y="620"/>
      <point x="932" y="721"/>
      <point x="843" y="609" type="curve"/>
      <point x="858" y="582"/>
      <point x="893" y="575"/>
      <point x="935" y="575" type="curve" smooth="yes"/>
      <point x="971" y="575"/>
      <point x="1012" y="580"/>
      <point x="1048" y="580" type="curve" smooth="yes"/>
      <point x="1102" y="580"/>
      <point x="1146" y="569"/>
      <point x="1146" y="515" type="curve" smooth="yes"/>
      <point x="1146" y="507"/>
      <point x="1145" y="498"/>
      <point x="1143" y="489" type="curve"/>
      <point x="1109" y="490"/>
      <point x="1075" y="491"/>
      <point x="1041" y="491" type="curve" smooth="yes"/>
      <point x="954" y="491"/>
      <point x="873" y="485"/>
      <point x="812" y="459" type="curve"/>
      <point x="812" y="248" type="line"/>
      <point x="807" y="248"/>
      <point x="802" y="247"/>
      <point x="798" y="247" type="curve" smooth="yes"/>
      <point x="742" y="247"/>
      <point x="726" y="276"/>
      <point x="726" y="313" type="curve" smooth="yes"/>
      <point x="726" y="350"/>
      <point x="742" y="395"/>
      <point x="752" y="429" type="curve"/>
      <point x="740" y="430"/>
      <point x="727" y="430"/>
      <point x="713" y="430" type="curve" smooth="yes"/>
      <point x="673" y="430"/>
      <point x="630" y="428"/>
      <point x="590" y="428" type="curve" smooth="yes"/>
      <point x="513" y="428"/>
      <point x="445" y="437"/>
      <point x="421" y="489" type="curve"/>
      <point x="422" y="528"/>
      <point x="443" y="540"/>
      <point x="476" y="540" type="curve" smooth="yes"/>
      <point x="529" y="540"/>
      <point x="611" y="508"/>
      <point x="686" y="508" type="curve" smooth="yes"/>
      <point x="709" y="508"/>
      <point x="731" y="511"/>
      <point x="752" y="519" type="curve"/>
      <point x="739" y="592"/>
      <point x="694" y="613"/>
      <point x="635" y="613" type="curve" smooth="yes"/>
      <point x="552" y="613"/>
      <point x="440" y="571"/>
      <point x="350" y="571" type="curve" smooth="yes"/>
      <point x="307" y="571"/>
      <point x="269" y="581"/>
      <point x="241" y="609" type="curve"/>
      <point x="241" y="613" type="line" smooth="yes"/>
      <point x="241" y="664"/>
      <point x="279" y="676"/>
      <point x="330" y="676" type="curve" smooth="yes"/>
      <point x="381" y="676"/>
      <point x="443" y="664"/>
      <point x="493" y="664" type="curve" smooth="yes"/>
      <point x="512" y="664"/>
      <point x="528" y="666"/>
      <point x="542" y="670" type="curve"/>
      <point x="387" y="806"/>
      <point x="125" y="835"/>
      <point x="30" y="1031" type="curve"/>
      <point x="240" y="1020"/>
      <point x="469" y="768"/>
      <point x="722" y="700" type="curve"/>
      <point x="958" y="775"/>
      <point x="919" y="1125"/>
    </contour>
  </outline>
</glyph>
<glyph name="copyright" format="1">
  <advance width="795"/>
  <unicode hex="00A9"/>
  <outline>
    <contour>
      <point x="754" y="762" type="curve"/>
      <point x="762" y="726"/>
      <point x="765" y="691"/>
      <point x="765" y="658" type="curve" smooth="yes"/>
      <point x="765" y="512"/>
      <point x="700" y="388"/>
      <point x="637" y="291" type="curve"/>
      <point x="577" y="248"/>
      <point x="500" y="228"/>
      <point x="420" y="228" type="curve" smooth="yes"/>
      <point x="331" y="228"/>
      <point x="239" y="253"/>
      <point x="165" y="298" type="curve" smooth="yes"/>
      <point x="90" y="344"/>
      <point x="30" y="416"/>
      <point x="30" y="509" type="curve" smooth="yes"/>
      <point x="30" y="546"/>
      <point x="40" y="586"/>
      <point x="62" y="630" type="curve" smooth="yes"/>
      <point x="103" y="711"/>
      <point x="205" y="810"/>
      <point x="298" y="851" type="curve" smooth="yes"/>
      <point x="336" y="868"/>
      <point x="373" y="875"/>
      <point x="410" y="875" type="curve" smooth="yes"/>
      <point x="530" y="875"/>
      <point x="644" y="801"/>
    </contour>
    <contour>
      <point x="467" y="726" type="curve"/>
      <point x="496" y="706"/>
      <point x="536" y="696"/>
      <point x="541" y="652" type="curve"/>
      <point x="529" y="629"/>
      <point x="514" y="622"/>
      <point x="496" y="622" type="curve" smooth="yes"/>
      <point x="477" y="622"/>
      <point x="455" y="630"/>
      <point x="430" y="637" type="curve"/>
      <point x="359" y="602"/>
      <point x="292" y="564"/>
      <point x="283" y="468" type="curve"/>
      <point x="307" y="451"/>
      <point x="332" y="445"/>
      <point x="356" y="445" type="curve" smooth="yes"/>
      <point x="429" y="445"/>
      <point x="502" y="504"/>
      <point x="570" y="512" type="curve"/>
      <point x="572" y="501"/>
      <point x="582" y="500"/>
      <point x="585" y="490" type="curve"/>
      <point x="561" y="384"/>
      <point x="433" y="381"/>
      <point x="327" y="357" type="curve"/>
      <point x="291" y="380"/>
      <point x="250" y="398"/>
      <point x="224" y="431" type="curve"/>
      <point x="221" y="450"/>
      <point x="220" y="468"/>
      <point x="220" y="484" type="curve" smooth="yes"/>
      <point x="220" y="603"/>
      <point x="283" y="658"/>
      <point x="349" y="711" type="curve"/>
      <point x="338" y="711" type="line" smooth="yes"/>
      <point x="218" y="711"/>
      <point x="116" y="618"/>
      <point x="116" y="504" type="curve" smooth="yes"/>
      <point x="116" y="476"/>
      <point x="122" y="446"/>
      <point x="136" y="416" type="curve"/>
      <point x="223" y="367"/>
      <point x="311" y="318"/>
      <point x="448" y="318" type="curve" smooth="yes"/>
      <point x="464" y="318"/>
      <point x="480" y="319"/>
      <point x="497" y="320" type="curve"/>
      <point x="593" y="356"/>
      <point x="665" y="482"/>
      <point x="665" y="602" type="curve" smooth="yes"/>
      <point x="665" y="649"/>
      <point x="654" y="694"/>
      <point x="629" y="733" type="curve"/>
      <point x="624" y="732"/>
      <point x="619" y="732"/>
      <point x="614" y="732" type="curve" smooth="yes"/>
      <point x="582" y="732"/>
      <point x="545" y="743"/>
      <point x="514" y="743" type="curve" smooth="yes"/>
      <point x="495" y="743"/>
      <point x="479" y="739"/>
    </contour>
  </outline>
</glyph>
<glyph name="Adieresis" format="1">
  <advance width="610"/>
  <unicode hex="00C4"/>
  <outline>
    <contour>
      <point x="375" y="1150" type="curve"/>
      <point x="439" y="1137"/>
      <point x="456" y="1078"/>
      <point x="456" y="1016" type="curve" smooth="yes"/>
      <point x="456" y="967"/>
      <point x="445" y="917"/>
      <point x="440" y="888" type="curve"/>
      <point x="383" y="892"/>
      <point x="373" y="941"/>
      <point x="373" y="1002" type="curve" smooth="yes"/>
      <point x="373" y="1038"/>
      <point x="377" y="1080"/>
      <point x="377" y="1116" type="curve" smooth="yes"/>
      <point x="377" y="1128"/>
      <point x="376" y="1139"/>
    </contour>
    <contour>
      <point x="224" y="1053" type="line"/>
      <point x="322" y="1053" type="line"/>
      <point x="309" y="994"/>
      <point x="310" y="921"/>
      <point x="238" y="921" type="curve" smooth="yes"/>
      <point x="234" y="921"/>
      <point x="229" y="921"/>
      <point x="224" y="922" type="curve"/>
    </contour>
    <contour>
      <point x="294" y="878" type="curve"/>
      <point x="360" y="878" type="line"/>
      <point x="486" y="740"/>
      <point x="462" y="452"/>
      <point x="580" y="306" type="curve"/>
      <point x="570" y="299"/>
      <point x="561" y="296"/>
      <point x="552" y="296" type="curve" smooth="yes"/>
      <point x="494" y="296"/>
      <point x="455" y="427"/>
      <point x="426" y="482" type="curve"/>
      <point x="406" y="483"/>
      <point x="387" y="484"/>
      <point x="368" y="484" type="curve" smooth="yes"/>
      <point x="284" y="484"/>
      <point x="214" y="469"/>
      <point x="162" y="438" type="curve"/>
      <point x="164" y="427"/>
      <point x="165" y="417"/>
      <point x="165" y="406" type="curve" smooth="yes"/>
      <point x="165" y="331"/>
      <point x="123" y="257"/>
      <point x="118" y="196" type="curve"/>
      <point x="118" y="189" type="line" smooth="yes"/>
      <point x="118" y="166"/>
      <point x="127" y="147"/>
      <point x="127" y="130" type="curve" smooth="yes"/>
      <point x="127" y="122"/>
      <point x="125" y="114"/>
      <point x="118" y="108" type="curve"/>
      <point x="112" y="105"/>
      <point x="107" y="104"/>
      <point x="102" y="104" type="curve" smooth="yes"/>
      <point x="78" y="104"/>
      <point x="68" y="135"/>
      <point x="68" y="167" type="curve" smooth="yes"/>
      <point x="68" y="203"/>
      <point x="80" y="240"/>
      <point x="96" y="240" type="curve"/>
      <point x="94" y="255"/>
      <point x="93" y="269"/>
      <point x="93" y="282" type="curve" smooth="yes"/>
      <point x="93" y="335"/>
      <point x="108" y="373"/>
      <point x="118" y="416" type="curve"/>
      <point x="117" y="431"/>
      <point x="114" y="436"/>
      <point x="109" y="436" type="curve" smooth="yes"/>
      <point x="98" y="436"/>
      <point x="78" y="410"/>
      <point x="52" y="410" type="curve" smooth="yes"/>
      <point x="45" y="410"/>
      <point x="38" y="411"/>
      <point x="30" y="416" type="curve"/>
      <point x="30" y="421" type="line" smooth="yes"/>
      <point x="30" y="478"/>
      <point x="85" y="479"/>
      <point x="140" y="482" type="curve"/>
      <point x="161" y="644"/>
      <point x="231" y="758"/>
    </contour>
    <contour>
      <point x="327" y="812" type="curve" smooth="yes"/>
      <point x="320" y="812" type="line"/>
      <point x="316" y="812" type="line"/>
      <point x="255" y="734"/>
      <point x="215" y="634"/>
      <point x="184" y="526" type="curve"/>
      <point x="426" y="526" type="line"/>
      <point x="427" y="535"/>
      <point x="427" y="544"/>
      <point x="427" y="552" type="curve" smooth="yes"/>
      <point x="427" y="654"/>
      <point x="385" y="713"/>
      <point x="360" y="790" type="curve" smooth="yes"/>
      <point x="356" y="804"/>
      <point x="345" y="812"/>
    </contour>
  </outline>
</glyph>
<glyph name="Ccedilla" format="1">
  <advance width="990"/>
  <unicode hex="00C7"/>
  <outline>
    <contour>
      <point x="688" y="1022" type="curve"/>
      <point x="688" y="1004" type="line" smooth="yes"/>
      <point x="688" y="950"/>
      <point x="666" y="932"/>
      <point x="636" y="932" type="curve" smooth="yes"/>
      <point x="592" y="932"/>
      <point x="534" y="970"/>
      <point x="506" y="994" type="curve"/>
      <point x="275" y="974"/>
      <point x="134" y="758"/>
      <point x="134" y="526" type="curve" smooth="yes"/>
      <point x="134" y="442"/>
      <point x="151" y="358"/>
      <point x="190" y="278" type="curve"/>
      <point x="240" y="233"/>
      <point x="308" y="214"/>
      <point x="380" y="214" type="curve" smooth="yes"/>
      <point x="480" y="214"/>
      <point x="591" y="251"/>
      <point x="681" y="296" type="curve" smooth="yes"/>
      <point x="763" y="336"/>
      <point x="837" y="417"/>
      <point x="918" y="417" type="curve" smooth="yes"/>
      <point x="932" y="417"/>
      <point x="946" y="414"/>
      <point x="960" y="410" type="curve"/>
      <point x="933" y="288"/>
      <point x="777" y="257"/>
      <point x="681" y="182" type="curve" smooth="yes"/>
      <point x="600" y="118"/>
      <point x="552" y="36"/>
      <point x="506" y="-54" type="curve"/>
      <point x="558" y="-92"/>
      <point x="630" y="-111"/>
      <point x="672" y="-159" type="curve"/>
      <point x="657" y="-203"/>
      <point x="632" y="-218"/>
      <point x="602" y="-218" type="curve" smooth="yes"/>
      <point x="538" y="-218"/>
      <point x="452" y="-148"/>
      <point x="418" y="-116" type="curve"/>
      <point x="418" y="-96" type="line" smooth="yes"/>
      <point x="418" y="10"/>
      <point x="464" y="75"/>
      <point x="524" y="120" type="curve"/>
      <point x="502" y="126"/>
      <point x="478" y="128"/>
      <point x="454" y="128" type="curve" smooth="yes"/>
      <point x="403" y="128"/>
      <point x="353" y="118"/>
      <point x="303" y="118" type="curve" smooth="yes"/>
      <point x="276" y="118"/>
      <point x="250" y="121"/>
      <point x="226" y="129" type="curve" smooth="yes"/>
      <point x="156" y="153"/>
      <point x="143" y="225"/>
      <point x="86" y="252" type="curve"/>
      <point x="48" y="320"/>
      <point x="30" y="396"/>
      <point x="30" y="477" type="curve" smooth="yes"/>
      <point x="30" y="717"/>
      <point x="178" y="987"/>
      <point x="348" y="1074" type="curve" smooth="yes"/>
      <point x="382" y="1092"/>
      <point x="425" y="1100"/>
      <point x="470" y="1100" type="curve" smooth="yes"/>
      <point x="556" y="1100"/>
      <point x="644" y="1070"/>
    </contour>
  </outline>
</glyph>
<glyph name="I" format="1">
  <advance width="517"/>
  <unicode hex="00CD"/>
  <outline>
    <contour>
      <point x="459" y="1067" type="curve"/>
      <point x="461" y="1059"/>
      <point x="462" y="1053"/>
      <point x="462" y="1047" type="curve" smooth="yes"/>
      <point x="462" y="1012"/>
      <point x="432" y="1006"/>
      <point x="397" y="1006" type="curve" smooth="yes"/>
      <point x="382" y="1006"/>
      <point x="366" y="1007"/>
      <point x="351" y="1007" type="curve" smooth="yes"/>
      <point x="321" y="1007"/>
      <point x="295" y="1004"/>
      <point x="288" y="981" type="curve"/>
      <point x="346" y="753"/>
      <point x="344" y="466"/>
      <point x="488" y="323" type="curve"/>
      <point x="446" y="299"/>
      <point x="396" y="290"/>
      <point x="345" y="290" type="curve" smooth="yes"/>
      <point x="234" y="290"/>
      <point x="117" y="335"/>
      <point x="59" y="380" type="curve"/>
      <point x="71" y="406"/>
      <point x="103" y="413"/>
      <point x="141" y="413" type="curve" smooth="yes"/>
      <point x="183" y="413"/>
      <point x="233" y="405"/>
      <point x="274" y="405" type="curve" smooth="yes"/>
      <point x="290" y="405"/>
      <point x="304" y="406"/>
      <point x="316" y="409" type="curve"/>
      <point x="317" y="421"/>
      <point x="317" y="432"/>
      <point x="317" y="443" type="curve" smooth="yes"/>
      <point x="317" y="645"/>
      <point x="230" y="760"/>
      <point x="230" y="962" type="curve" smooth="yes"/>
      <point x="230" y="981" type="line"/>
      <point x="223" y="1008"/>
      <point x="195" y="1013"/>
      <point x="161" y="1013" type="curve" smooth="yes"/>
      <point x="141" y="1013"/>
      <point x="118" y="1011"/>
      <point x="97" y="1011" type="curve" smooth="yes"/>
      <point x="66" y="1011"/>
      <point x="39" y="1015"/>
      <point x="30" y="1038" type="curve"/>
      <point x="50" y="1087"/>
      <point x="130" y="1104"/>
      <point x="218" y="1104" type="curve" smooth="yes"/>
      <point x="312" y="1104"/>
      <point x="414" y="1085"/>
    </contour>
    <contour>
      <point x="373" y="1553" type="curve"/>
      <point x="313" y="1422"/>
      <point x="218" y="1327"/>
      <point x="87" y="1267" type="curve"/>
      <point x="147" y="1398"/>
      <point x="242" y="1493"/>
    </contour>
  </outline>
</glyph>
<glyph name="i" format="1">
  <advance width="382"/>
  <unicode hex="00CE"/>
  <outline>
    <contour>
      <point x="148" y="1281" type="curve"/>
      <point x="280" y="1257"/>
      <point x="296" y="1120"/>
      <point x="352" y="1020" type="curve"/>
      <point x="346" y="1020" type="line" smooth="yes"/>
      <point x="241" y="1020"/>
      <point x="256" y="1140"/>
      <point x="206" y="1194" type="curve"/>
      <point x="198" y="1196"/>
      <point x="191" y="1196"/>
      <point x="185" y="1196" type="curve" smooth="yes"/>
      <point x="99" y="1196"/>
      <point x="138" y="1076"/>
      <point x="52" y="1076" type="curve" smooth="yes"/>
      <point x="46" y="1076"/>
      <point x="38" y="1075"/>
      <point x="30" y="1077" type="curve"/>
      <point x="42" y="1171"/>
      <point x="92" y="1230"/>
    </contour>
    <contour>
      <point x="138" y="988" type="curve" smooth="yes"/>
      <point x="143" y="988" type="line" smooth="yes"/>
      <point x="235" y="988"/>
      <point x="257" y="920"/>
      <point x="257" y="828" type="curve" smooth="yes"/>
      <point x="257" y="735"/>
      <point x="233" y="619"/>
      <point x="233" y="526" type="curve" smooth="yes"/>
      <point x="233" y="493"/>
      <point x="236" y="465"/>
      <point x="244" y="441" type="curve"/>
      <point x="244" y="435" type="line" smooth="yes"/>
      <point x="244" y="303"/>
      <point x="344" y="198"/>
      <point x="344" y="105" type="curve" smooth="yes"/>
      <point x="344" y="73"/>
      <point x="332" y="43"/>
      <point x="304" y="15" type="curve"/>
      <point x="140" y="156"/>
      <point x="96" y="368"/>
      <point x="96" y="600" type="curve" smooth="yes"/>
      <point x="96" y="726"/>
      <point x="110" y="858"/>
      <point x="122" y="987" type="curve"/>
      <point x="128" y="987"/>
      <point x="132" y="988"/>
    </contour>
  </outline>
</glyph>
<glyph name="o" format="1">
  <advance width="1350"/>
  <unicode hex="00D4"/>
  <outline>
    <contour>
      <point x="501" y="1305" type="curve"/>
      <point x="703" y="1305" type="line"/>
      <point x="763" y="1285"/>
      <point x="774" y="1249"/>
      <point x="774" y="1210" type="curve" smooth="yes"/>
      <point x="774" y="1189"/>
      <point x="771" y="1166"/>
      <point x="771" y="1144" type="curve"/>
      <point x="765" y="1138"/>
      <point x="763" y="1131"/>
      <point x="763" y="1122" type="curve" smooth="yes"/>
      <point x="763" y="1098"/>
      <point x="780" y="1071"/>
      <point x="780" y="1047" type="curve" smooth="yes"/>
      <point x="780" y="1023"/>
      <point x="762" y="1004"/>
      <point x="690" y="1004" type="curve" smooth="yes"/>
      <point x="675" y="1004"/>
      <point x="657" y="1004"/>
      <point x="636" y="1006" type="curve"/>
      <point x="636" y="1236" type="line"/>
      <point x="369" y="1190"/>
      <point x="327" y="1066"/>
      <point x="165" y="984" type="curve"/>
      <point x="144" y="999"/>
      <point x="133" y="1014"/>
      <point x="133" y="1030" type="curve" smooth="yes"/>
      <point x="133" y="1120"/>
      <point x="437" y="1215"/>
    </contour>
    <contour>
      <point x="840" y="934" type="line"/>
      <point x="1018" y="932"/>
      <point x="1192" y="882"/>
      <point x="1320" y="772" type="curve"/>
      <point x="1281" y="192"/>
      <point x="899" y="9"/>
      <point x="357" y="9" type="curve" smooth="yes"/>
      <point x="273" y="9"/>
      <point x="183" y="13"/>
      <point x="91" y="21" type="curve"/>
      <point x="49" y="120"/>
      <point x="30" y="211"/>
      <point x="30" y="297" type="curve" smooth="yes"/>
      <point x="30" y="695"/>
      <point x="444" y="934"/>
      <point x="834" y="934" type="curve" smooth="yes"/>
    </contour>
    <contour>
      <point x="781" y="752" type="curve" smooth="yes"/>
      <point x="475" y="752"/>
      <point x="163" y="594"/>
      <point x="163" y="210" type="curve" smooth="yes"/>
      <point x="163" y="188" type="line"/>
      <point x="233" y="182"/>
      <point x="303" y="177"/>
      <point x="367" y="177" type="curve" smooth="yes"/>
      <point x="760" y="177"/>
      <point x="1041" y="308"/>
      <point x="1103" y="690" type="curve"/>
      <point x="1007" y="730"/>
      <point x="893" y="752"/>
    </contour>
  </outline>
</glyph>
<glyph name="O" format="1">
  <advance width="1003"/>
  <unicode hex="00D6"/>
  <outline>
    <contour>
      <point x="442" y="1439" type="curve"/>
      <point x="558" y="1417"/>
      <point x="588" y="1306"/>
      <point x="588" y="1194" type="curve" smooth="yes"/>
      <point x="588" y="1107"/>
      <point x="570" y="1019"/>
      <point x="561" y="968" type="curve"/>
      <point x="457" y="976"/>
      <point x="439" y="1067"/>
      <point x="439" y="1178" type="curve" smooth="yes"/>
      <point x="439" y="1241"/>
      <point x="445" y="1313"/>
      <point x="445" y="1376" type="curve" smooth="yes"/>
      <point x="445" y="1398"/>
      <point x="444" y="1419"/>
    </contour>
    <contour>
      <point x="30" y="1380" type="line"/>
      <point x="207" y="1380" type="line"/>
      <point x="183" y="1274"/>
      <point x="185" y="1144"/>
      <point x="55" y="1144" type="curve" smooth="yes"/>
      <point x="47" y="1144"/>
      <point x="39" y="1143"/>
      <point x="30" y="1145" type="curve"/>
    </contour>
    <contour>
      <point x="442" y="910" type="curve"/>
      <point x="768" y="846"/>
      <point x="973" y="684"/>
      <point x="973" y="438" type="curve" smooth="yes"/>
      <point x="973" y="176"/>
      <point x="727" y="-19"/>
      <point x="465" y="-19" type="curve" smooth="yes"/>
      <point x="335" y="-19"/>
      <point x="198" y="29"/>
      <point x="88" y="143" type="curve"/>
      <point x="79" y="194"/>
      <point x="76" y="240"/>
      <point x="76" y="282" type="curve" smooth="yes"/>
      <point x="76" y="614"/>
      <point x="314" y="706"/>
    </contour>
    <contour>
      <point x="568" y="728" type="curve" smooth="yes"/>
      <point x="565" y="728" type="line" smooth="yes"/>
      <point x="363" y="728"/>
      <point x="171" y="504"/>
      <point x="171" y="292" type="curve" smooth="yes"/>
      <point x="171" y="241"/>
      <point x="181" y="189"/>
      <point x="207" y="143" type="curve"/>
      <point x="678" y="143" type="line"/>
      <point x="735" y="251"/>
      <point x="804" y="349"/>
      <point x="804" y="514" type="curve" smooth="yes"/>
      <point x="804" y="546"/>
      <point x="802" y="578"/>
      <point x="796" y="614" type="curve"/>
      <point x="726" y="694"/>
      <point x="646" y="728"/>
    </contour>
  </outline>
</glyph>
<glyph name="agrave" format="1">
  <advance width="871"/>
  <unicode hex="00E0"/>
  <outline>
    <contour>
      <point x="158" y="1100" type="line" smooth="yes"/>
      <point x="246" y="1100"/>
      <point x="346" y="1054"/>
      <point x="432" y="1030" type="curve" smooth="yes"/>
      <point x="518" y="1006"/>
      <point x="675" y="1038"/>
      <point x="680" y="923" type="curve"/>
      <point x="498" y="977"/>
      <point x="196" y="911"/>
      <point x="149" y="1100" type="curve"/>
    </contour>
    <contour>
      <point x="597" y="861" type="curve" smooth="yes"/>
      <point x="628" y="861"/>
      <point x="660" y="859"/>
      <point x="691" y="856" type="curve"/>
      <point x="717" y="789"/>
      <point x="763" y="743"/>
      <point x="830" y="717" type="curve"/>
      <point x="838" y="679"/>
      <point x="841" y="643"/>
      <point x="841" y="608" type="curve" smooth="yes"/>
      <point x="841" y="374"/>
      <point x="677" y="225"/>
      <point x="498" y="225" type="curve" smooth="yes"/>
      <point x="454" y="225"/>
      <point x="409" y="234"/>
      <point x="366" y="253" type="curve"/>
      <point x="368" y="419"/>
      <point x="534" y="549"/>
      <point x="663" y="549" type="curve" smooth="yes"/>
      <point x="690" y="549"/>
      <point x="715" y="543"/>
      <point x="737" y="531" type="curve"/>
      <point x="741" y="552"/>
      <point x="744" y="571"/>
      <point x="744" y="587" type="curve" smooth="yes"/>
      <point x="744" y="710"/>
      <point x="629" y="717"/>
      <point x="552" y="763" type="curve"/>
      <point x="294" y="743"/>
      <point x="156" y="602"/>
      <point x="42" y="438" type="curve"/>
      <point x="34" y="463"/>
      <point x="30" y="486"/>
      <point x="30" y="510" type="curve" smooth="yes"/>
      <point x="30" y="708"/>
      <point x="301" y="861"/>
    </contour>
    <contour>
      <point x="675" y="439" type="curve" smooth="yes"/>
      <point x="611" y="438"/>
      <point x="505" y="389"/>
      <point x="505" y="344" type="curve" smooth="yes"/>
      <point x="505" y="328"/>
      <point x="519" y="312"/>
      <point x="552" y="299" type="curve"/>
      <point x="557" y="383"/>
      <point x="692" y="335"/>
      <point x="692" y="424" type="curve" smooth="yes"/>
      <point x="692" y="428"/>
      <point x="692" y="433"/>
      <point x="691" y="438" type="curve"/>
      <point x="686" y="439"/>
      <point x="681" y="439"/>
    </contour>
  </outline>
</glyph>
<glyph name="a" format="1">
  <advance width="594"/>
  <unicode hex="00E1"/>
  <outline>
    <contour>
      <point x="519" y="966" type="curve"/>
      <point x="518" y="888"/>
      <point x="413" y="896"/>
      <point x="319" y="877" type="curve" smooth="yes"/>
      <point x="259" y="865"/>
      <point x="195" y="838"/>
      <point x="147" y="838" type="curve" smooth="yes"/>
      <point x="127" y="838"/>
      <point x="110" y="842"/>
      <point x="96" y="855" type="curve"/>
      <point x="127" y="921"/>
      <point x="238" y="906"/>
      <point x="319" y="921" type="curve"/>
      <point x="391" y="931"/>
      <point x="439" y="964"/>
    </contour>
    <contour>
      <point x="354" y="769" type="line" smooth="yes"/>
      <point x="385" y="769"/>
      <point x="416" y="766"/>
      <point x="445" y="761" type="curve"/>
      <point x="480" y="691"/>
      <point x="541" y="646"/>
      <point x="564" y="564" type="curve"/>
      <point x="539" y="384"/>
      <point x="411" y="223"/>
      <point x="243" y="223" type="curve" smooth="yes"/>
      <point x="207" y="223"/>
      <point x="168" y="230"/>
      <point x="129" y="247" type="curve"/>
      <point x="128" y="260"/>
      <point x="127" y="271"/>
      <point x="127" y="283" type="curve" smooth="yes"/>
      <point x="127" y="496"/>
      <point x="312" y="524"/>
      <point x="406" y="643" type="curve"/>
      <point x="377" y="675"/>
      <point x="331" y="688"/>
      <point x="281" y="688" type="curve" smooth="yes"/>
      <point x="179" y="688"/>
      <point x="63" y="632"/>
      <point x="50" y="564" type="curve"/>
      <point x="36" y="584"/>
      <point x="30" y="602"/>
      <point x="30" y="620" type="curve" smooth="yes"/>
      <point x="30" y="709"/>
      <point x="193" y="769"/>
      <point x="351" y="769" type="curve" smooth="yes"/>
    </contour>
    <contour>
      <point x="445" y="524" type="curve"/>
      <point x="323" y="495"/>
      <point x="207" y="462"/>
      <point x="207" y="311" type="curve" smooth="yes"/>
      <point x="207" y="303"/>
      <point x="207" y="295"/>
      <point x="208" y="287" type="curve"/>
      <point x="352" y="301"/>
      <point x="431" y="380"/>
    </contour>
  </outline>
</glyph>
<glyph name="aring" format="1">
  <advance width="845"/>
  <unicode hex="00E5"/>
  <outline>
    <contour>
      <point x="459" y="1120" type="curve"/>
      <point x="471" y="1120" type="line"/>
      <point x="493" y="1090"/>
      <point x="508" y="1053"/>
      <point x="508" y="1001" type="curve" smooth="yes"/>
      <point x="508" y="987"/>
      <point x="506" y="971"/>
      <point x="504" y="954" type="curve"/>
      <point x="482" y="930"/>
      <point x="435" y="919"/>
      <point x="388" y="919" type="curve" smooth="yes"/>
      <point x="341" y="919"/>
      <point x="294" y="930"/>
      <point x="272" y="954" type="curve"/>
      <point x="292" y="1052"/>
      <point x="342" y="1119"/>
    </contour>
    <contour>
      <point x="579" y="843" type="curve" smooth="yes"/>
      <point x="609" y="843"/>
      <point x="640" y="841"/>
      <point x="670" y="838" type="curve"/>
      <point x="695" y="773"/>
      <point x="739" y="728"/>
      <point x="804" y="703" type="curve"/>
      <point x="811" y="666"/>
      <point x="815" y="631"/>
      <point x="815" y="598" type="curve" smooth="yes"/>
      <point x="815" y="371"/>
      <point x="657" y="228"/>
      <point x="484" y="228" type="curve" smooth="yes"/>
      <point x="441" y="228"/>
      <point x="397" y="237"/>
      <point x="355" y="255" type="curve"/>
      <point x="357" y="416"/>
      <point x="517" y="541"/>
      <point x="642" y="541" type="curve" smooth="yes"/>
      <point x="668" y="541"/>
      <point x="693" y="536"/>
      <point x="714" y="524" type="curve"/>
      <point x="718" y="544"/>
      <point x="720" y="562"/>
      <point x="720" y="578" type="curve" smooth="yes"/>
      <point x="720" y="696"/>
      <point x="609" y="703"/>
      <point x="535" y="748" type="curve"/>
      <point x="285" y="729"/>
      <point x="152" y="593"/>
      <point x="41" y="434" type="curve"/>
      <point x="33" y="458"/>
      <point x="30" y="481"/>
      <point x="30" y="504" type="curve" smooth="yes"/>
      <point x="30" y="696"/>
      <point x="292" y="843"/>
    </contour>
    <contour>
      <point x="654" y="435" type="curve" smooth="yes"/>
      <point x="592" y="434"/>
      <point x="490" y="387"/>
      <point x="490" y="343" type="curve" smooth="yes"/>
      <point x="490" y="327"/>
      <point x="503" y="312"/>
      <point x="535" y="300" type="curve"/>
      <point x="540" y="381"/>
      <point x="671" y="336"/>
      <point x="671" y="421" type="curve" smooth="yes"/>
      <point x="671" y="425"/>
      <point x="671" y="429"/>
      <point x="670" y="434" type="curve"/>
      <point x="665" y="435"/>
      <point x="660" y="435"/>
    </contour>
  </outline>
</glyph>
<glyph name="egrave" format="1">
  <advance width="740"/>
  <unicode hex="00E8"/>
  <outline>
    <contour>
      <point x="459" y="660" type="curve" smooth="yes"/>
      <point x="423" y="660"/>
      <point x="398" y="642"/>
      <point x="387" y="569" type="curve"/>
      <point x="402" y="568"/>
      <point x="415" y="567"/>
      <point x="429" y="567" type="curve" smooth="yes"/>
      <point x="511" y="567"/>
      <point x="574" y="587"/>
      <point x="602" y="640" type="curve"/>
      <point x="544" y="640"/>
      <point x="495" y="660"/>
    </contour>
    <contour>
      <point x="534" y="715" type="curve" smooth="yes"/>
      <point x="596" y="715"/>
      <point x="657" y="703"/>
      <point x="709" y="676" type="curve"/>
      <point x="710" y="666"/>
      <point x="710" y="658"/>
      <point x="710" y="649" type="curve" smooth="yes"/>
      <point x="710" y="512"/>
      <point x="589" y="496"/>
      <point x="452" y="496" type="curve" smooth="yes"/>
      <point x="410" y="496"/>
      <point x="366" y="498"/>
      <point x="324" y="498" type="curve" smooth="yes"/>
      <point x="309" y="498"/>
      <point x="294" y="498"/>
      <point x="280" y="497" type="curve"/>
      <point x="280" y="484" type="line" smooth="yes"/>
      <point x="280" y="286"/>
      <point x="507" y="315"/>
      <point x="673" y="283" type="curve"/>
      <point x="634" y="239"/>
      <point x="589" y="223"/>
      <point x="540" y="223" type="curve" smooth="yes"/>
      <point x="443" y="223"/>
      <point x="333" y="287"/>
      <point x="244" y="319" type="curve"/>
      <point x="201" y="383"/>
      <point x="238" y="527"/>
      <point x="173" y="569" type="curve"/>
      <point x="232" y="651"/>
      <point x="387" y="715"/>
    </contour>
    <contour>
      <point x="39" y="1141" type="line" smooth="yes"/>
      <point x="128" y="1141"/>
      <point x="229" y="1093"/>
      <point x="316" y="1069" type="curve" smooth="yes"/>
      <point x="402" y="1045"/>
      <point x="561" y="1078"/>
      <point x="566" y="962" type="curve"/>
      <point x="382" y="1017"/>
      <point x="77" y="950"/>
      <point x="30" y="1141" type="curve"/>
    </contour>
  </outline>
</glyph>
<glyph name="ecircumflex" format="1">
  <advance width="485"/>
  <unicode hex="00EA"/>
  <outline>
    <contour>
      <point x="283" y="1200" type="curve"/>
      <point x="288" y="1201"/>
      <point x="292" y="1201"/>
      <point x="296" y="1201" type="curve" smooth="yes"/>
      <point x="330" y="1201"/>
      <point x="336" y="1173"/>
      <point x="369" y="1171" type="curve"/>
      <point x="360" y="1058"/>
      <point x="349" y="957"/>
      <point x="349" y="860" type="curve" smooth="yes"/>
      <point x="349" y="760"/>
      <point x="360" y="666"/>
      <point x="398" y="571" type="curve"/>
      <point x="318" y="508"/>
      <point x="161" y="523"/>
      <point x="141" y="400" type="curve"/>
      <point x="141" y="392" type="line" smooth="yes"/>
      <point x="141" y="297"/>
      <point x="223" y="283"/>
      <point x="318" y="283" type="curve" smooth="yes"/>
      <point x="355" y="283"/>
      <point x="395" y="285"/>
      <point x="432" y="285" type="curve" smooth="yes"/>
      <point x="455" y="285" type="line"/>
      <point x="426" y="242"/>
      <point x="371" y="225"/>
      <point x="312" y="225" type="curve" smooth="yes"/>
      <point x="220" y="225"/>
      <point x="118" y="266"/>
      <point x="83" y="314" type="curve"/>
      <point x="86" y="334"/>
      <point x="87" y="352"/>
      <point x="87" y="369" type="curve" smooth="yes"/>
      <point x="87" y="437"/>
      <point x="69" y="488"/>
      <point x="55" y="542" type="curve"/>
      <point x="57" y="542" type="line" smooth="yes"/>
      <point x="180" y="542"/>
      <point x="212" y="634"/>
      <point x="312" y="657" type="curve"/>
      <point x="286" y="695"/>
      <point x="280" y="753"/>
      <point x="280" y="817" type="curve" smooth="yes"/>
      <point x="280" y="875"/>
      <point x="285" y="939"/>
      <point x="285" y="997" type="curve" smooth="yes"/>
      <point x="285" y="1018"/>
      <point x="285" y="1038"/>
      <point x="283" y="1057" type="curve"/>
      <point x="183" y="967"/>
      <point x="136" y="823"/>
      <point x="83" y="685" type="curve"/>
      <point x="44" y="701"/>
      <point x="30" y="724"/>
      <point x="30" y="751" type="curve" smooth="yes"/>
      <point x="30" y="816"/>
      <point x="115" y="899"/>
      <point x="141" y="943" type="curve"/>
      <point x="157" y="1061"/>
      <point x="240" y="1110"/>
    </contour>
  </outline>
</glyph>
<glyph name="odieresis" format="1">
  <advance width="606"/>
  <unicode hex="00F6"/>
  <outline>
    <contour>
      <point x="425" y="1062" type="curve"/>
      <point x="518" y="1044"/>
      <point x="543" y="956"/>
      <point x="543" y="867" type="curve" smooth="yes"/>
      <point x="543" y="824"/>
      <point x="537" y="780"/>
      <point x="531" y="744" type="curve"/>
      <point x="550" y="720"/>
      <point x="565" y="690"/>
      <point x="576" y="653" type="curve"/>
      <point x="567" y="651"/>
      <point x="559" y="651"/>
      <point x="552" y="651" type="curve" smooth="yes"/>
      <point x="488" y="651"/>
      <point x="477" y="703"/>
      <point x="416" y="706" type="curve"/>
      <point x="495" y="620"/>
      <point x="554" y="522"/>
      <point x="554" y="421" type="curve" smooth="yes"/>
      <point x="554" y="356"/>
      <point x="530" y="290"/>
      <point x="469" y="225" type="curve"/>
      <point x="428" y="220"/>
      <point x="391" y="217"/>
      <point x="355" y="217" type="curve" smooth="yes"/>
      <point x="213" y="217"/>
      <point x="111" y="258"/>
      <point x="41" y="332" type="curve"/>
      <point x="33" y="360"/>
      <point x="30" y="388"/>
      <point x="30" y="416" type="curve" smooth="yes"/>
      <point x="30" y="623"/>
      <point x="231" y="809"/>
      <point x="393" y="809" type="curve" smooth="yes"/>
      <point x="403" y="809"/>
      <point x="414" y="809"/>
      <point x="424" y="807" type="curve"/>
      <point x="423" y="821"/>
      <point x="423" y="835"/>
      <point x="423" y="850" type="curve" smooth="yes"/>
      <point x="423" y="901"/>
      <point x="427" y="957"/>
      <point x="427" y="1008" type="curve" smooth="yes"/>
      <point x="427" y="1027"/>
      <point x="427" y="1045"/>
    </contour>
    <contour>
      <point x="92" y="1015" type="line"/>
      <point x="235" y="1015" type="line"/>
      <point x="216" y="929"/>
      <point x="218" y="824"/>
      <point x="113" y="824" type="curve" smooth="yes"/>
      <point x="107" y="824"/>
      <point x="100" y="824"/>
      <point x="92" y="825" type="curve"/>
    </contour>
    <contour>
      <point x="255" y="653" type="curve"/>
      <point x="236" y="566"/>
      <point x="139" y="557"/>
      <point x="139" y="449" type="curve" smooth="yes"/>
      <point x="139" y="431"/>
      <point x="141" y="410"/>
      <point x="148" y="385" type="curve"/>
      <point x="197" y="350"/>
      <point x="258" y="327"/>
      <point x="342" y="327" type="curve" smooth="yes"/>
      <point x="365" y="327"/>
      <point x="389" y="328"/>
      <point x="416" y="332" type="curve"/>
      <point x="420" y="359"/>
      <point x="422" y="384"/>
      <point x="422" y="407" type="curve" smooth="yes"/>
      <point x="422" y="545"/>
      <point x="354" y="614"/>
    </contour>
  </outline>
</glyph>
<glyph name="minucule" format="1">
  <advance width="1104"/>
  <unicode hex="00F9"/>
  <outline>
    <contour>
      <point x="199" y="1009" type="curve" smooth="yes"/>
      <point x="297" y="1009"/>
      <point x="408" y="956"/>
      <point x="504" y="930" type="curve" smooth="yes"/>
      <point x="599" y="904"/>
      <point x="774" y="939"/>
      <point x="779" y="812" type="curve"/>
      <point x="577" y="872"/>
      <point x="242" y="798"/>
      <point x="190" y="1008" type="curve"/>
      <point x="193" y="1008"/>
      <point x="196" y="1009"/>
    </contour>
    <contour>
      <point x="90" y="720" type="curve" smooth="yes"/>
      <point x="91" y="720" type="line" smooth="yes"/>
      <point x="160" y="720"/>
      <point x="175" y="689"/>
      <point x="175" y="645" type="curve" smooth="yes"/>
      <point x="175" y="611"/>
      <point x="166" y="569"/>
      <point x="166" y="526" type="curve" smooth="yes"/>
      <point x="166" y="476"/>
      <point x="179" y="425"/>
      <point x="233" y="387" type="curve"/>
      <point x="253" y="385"/>
      <point x="271" y="384"/>
      <point x="289" y="384" type="curve" smooth="yes"/>
      <point x="590" y="384"/>
      <point x="533" y="635"/>
      <point x="719" y="715" type="curve"/>
      <point x="734" y="514"/>
      <point x="809" y="400"/>
      <point x="965" y="400" type="curve" smooth="yes"/>
      <point x="997" y="400"/>
      <point x="1034" y="406"/>
      <point x="1074" y="416" type="curve"/>
      <point x="1057" y="332"/>
      <point x="960" y="274"/>
      <point x="870" y="274" type="curve" smooth="yes"/>
      <point x="796" y="274"/>
      <point x="727" y="314"/>
      <point x="712" y="412" type="curve"/>
      <point x="617" y="315"/>
      <point x="490" y="268"/>
      <point x="370" y="268" type="curve" smooth="yes"/>
      <point x="191" y="268"/>
      <point x="30" y="375"/>
      <point x="30" y="575" type="curve" smooth="yes"/>
      <point x="30" y="619"/>
      <point x="38" y="666"/>
      <point x="54" y="718" type="curve"/>
      <point x="67" y="720"/>
      <point x="79" y="720"/>
    </contour>
  </outline>
</glyph>
<glyph name="u" format="1">
  <advance width="886"/>
  <unicode hex="00FA"/>
  <outline>
    <contour>
      <point x="82" y="699" type="curve"/>
      <point x="127" y="687"/>
      <point x="136" y="638"/>
      <point x="136" y="581" type="curve" smooth="yes"/>
      <point x="136" y="547"/>
      <point x="133" y="510"/>
      <point x="133" y="476" type="curve" smooth="yes"/>
      <point x="133" y="423"/>
      <point x="140" y="376"/>
      <point x="179" y="361" type="curve"/>
      <point x="199" y="357"/>
      <point x="217" y="356"/>
      <point x="233" y="356" type="curve" smooth="yes"/>
      <point x="458" y="356"/>
      <point x="347" y="692"/>
      <point x="566" y="699" type="curve"/>
      <point x="563" y="657"/>
      <point x="561" y="616"/>
      <point x="561" y="578" type="curve" smooth="yes"/>
      <point x="561" y="420"/>
      <point x="598" y="299"/>
      <point x="756" y="299" type="curve" smooth="yes"/>
      <point x="785" y="299"/>
      <point x="818" y="303"/>
      <point x="856" y="312" type="curve"/>
      <point x="797" y="225"/>
      <point x="731" y="197"/>
      <point x="659" y="197" type="curve" smooth="yes"/>
      <point x="525" y="197"/>
      <point x="373" y="295"/>
      <point x="219" y="295" type="curve" smooth="yes"/>
      <point x="174" y="295"/>
      <point x="128" y="287"/>
      <point x="82" y="264" type="curve"/>
      <point x="60" y="332"/>
      <point x="30" y="438"/>
      <point x="30" y="534" type="curve" smooth="yes"/>
      <point x="30" y="598"/>
      <point x="44" y="658"/>
    </contour>
    <contour>
      <point x="566" y="1135" type="curve"/>
      <point x="542" y="957"/>
      <point x="405" y="893"/>
      <point x="202" y="893" type="curve" smooth="yes"/>
      <point x="179" y="893" type="line"/>
      <point x="219" y="1063"/>
      <point x="412" y="1079"/>
    </contour>
  </outline>
</glyph>
<glyph name="minuscule" format="1">
  <advance width="668"/>
  <unicode hex="00FF"/>
  <outline>
    <contour>
      <point x="608" y="1053" type="curve"/>
      <point x="608" y="1040" type="line" smooth="yes"/>
      <point x="608" y="898"/>
      <point x="529" y="813"/>
      <point x="461" y="813" type="curve" smooth="yes"/>
      <point x="434" y="813"/>
      <point x="410" y="826"/>
      <point x="392" y="853" type="curve"/>
      <point x="422" y="985"/>
      <point x="507" y="1031"/>
    </contour>
    <contour>
      <point x="118" y="1021" type="curve" smooth="yes"/>
      <point x="206" y="1020"/>
      <point x="243" y="986"/>
      <point x="243" y="949" type="curve" smooth="yes"/>
      <point x="243" y="923"/>
      <point x="223" y="895"/>
      <point x="188" y="878" type="curve"/>
      <point x="105" y="902"/>
      <point x="107" y="969"/>
      <point x="76" y="1019" type="curve"/>
      <point x="91" y="1021"/>
      <point x="105" y="1021"/>
    </contour>
    <contour>
      <point x="175" y="819" type="line" smooth="yes"/>
      <point x="197" y="819"/>
      <point x="220" y="814"/>
      <point x="246" y="802" type="curve"/>
      <point x="250" y="789"/>
      <point x="252" y="779"/>
      <point x="252" y="770" type="curve" smooth="yes"/>
      <point x="252" y="741"/>
      <point x="229" y="735"/>
      <point x="200" y="735" type="curve" smooth="yes"/>
      <point x="179" y="735"/>
      <point x="154" y="738"/>
      <point x="133" y="738" type="curve" smooth="yes"/>
      <point x="127" y="738"/>
      <point x="121" y="738"/>
      <point x="116" y="737" type="curve"/>
      <point x="116" y="541" type="line"/>
      <point x="125" y="474"/>
      <point x="203" y="476"/>
      <point x="246" y="443" type="curve"/>
      <point x="423" y="451"/>
      <point x="442" y="617"/>
      <point x="540" y="704" type="curve"/>
      <point x="627" y="690"/>
      <point x="638" y="601"/>
      <point x="638" y="501" type="curve" smooth="yes"/>
      <point x="638" y="467"/>
      <point x="637" y="431"/>
      <point x="637" y="396" type="curve" smooth="yes"/>
      <point x="637" y="379"/>
      <point x="637" y="362"/>
      <point x="638" y="345" type="curve"/>
      <point x="591" y="164"/>
      <point x="593" y="-67"/>
      <point x="475" y="-177" type="curve"/>
      <point x="347" y="-161"/>
      <point x="310" y="-53"/>
      <point x="310" y="91" type="curve" smooth="yes"/>
      <point x="310" y="110"/>
      <point x="311" y="130"/>
      <point x="312" y="150" type="curve"/>
      <point x="359" y="282"/>
      <point x="545" y="273"/>
      <point x="545" y="452" type="curve" smooth="yes"/>
      <point x="545" y="469"/>
      <point x="544" y="487"/>
      <point x="540" y="508" type="curve"/>
      <point x="531" y="519"/>
      <point x="522" y="523"/>
      <point x="513" y="523" type="curve" smooth="yes"/>
      <point x="463" y="523"/>
      <point x="419" y="377"/>
      <point x="327" y="377" type="curve" smooth="yes"/>
      <point x="322" y="377"/>
      <point x="317" y="377"/>
      <point x="312" y="378" type="curve"/>
      <point x="286" y="371"/>
      <point x="261" y="368"/>
      <point x="239" y="368" type="curve" smooth="yes"/>
      <point x="96" y="368"/>
      <point x="30" y="496"/>
      <point x="30" y="616" type="curve" smooth="yes"/>
      <point x="30" y="721"/>
      <point x="80" y="819"/>
      <point x="174" y="819" type="curve" smooth="yes"/>
    </contour>
    <contour>
      <point x="475" y="280" type="curve"/>
      <point x="427" y="228"/>
      <point x="384" y="139"/>
      <point x="384" y="56" type="curve" smooth="yes"/>
      <point x="384" y="5"/>
      <point x="401" y="-43"/>
      <point x="442" y="-79" type="curve"/>
      <point x="461" y="-26"/>
      <point x="541" y="117"/>
      <point x="541" y="206" type="curve" smooth="yes"/>
      <point x="541" y="248"/>
      <point x="524" y="277"/>
    </contour>
  </outline>
</glyph>
<glyph name="abreve" format="1">
  <advance width="569"/>
  <unicode hex="0103"/>
  <outline>
    <contour>
      <point x="379" y="608" type="curve"/>
      <point x="345" y="639"/>
      <point x="316" y="651"/>
      <point x="290" y="651" type="curve" smooth="yes"/>
      <point x="189" y="651"/>
      <point x="134" y="466"/>
      <point x="32" y="454" type="curve"/>
      <point x="31" y="466"/>
      <point x="30" y="477"/>
      <point x="30" y="487" type="curve" smooth="yes"/>
      <point x="30" y="619"/>
      <point x="118" y="660"/>
      <point x="186" y="724" type="curve"/>
      <point x="110" y="732"/>
      <point x="62" y="849"/>
      <point x="62" y="958" type="curve" smooth="yes"/>
      <point x="62" y="1054"/>
      <point x="99" y="1145"/>
      <point x="186" y="1149" type="curve"/>
      <point x="191" y="1126"/>
      <point x="193" y="1104"/>
      <point x="193" y="1083" type="curve" smooth="yes"/>
      <point x="193" y="1006"/>
      <point x="164" y="944"/>
      <point x="164" y="895" type="curve" smooth="yes"/>
      <point x="164" y="874"/>
      <point x="170" y="856"/>
      <point x="186" y="840" type="curve"/>
      <point x="303" y="862"/>
      <point x="376" y="966"/>
      <point x="376" y="1085" type="curve" smooth="yes"/>
      <point x="376" y="1131"/>
      <point x="365" y="1179"/>
      <point x="341" y="1226" type="curve"/>
      <point x="355" y="1230"/>
      <point x="367" y="1232"/>
      <point x="377" y="1232" type="curve" smooth="yes"/>
      <point x="457" y="1232"/>
      <point x="429" y="1125"/>
      <point x="495" y="1111" type="curve"/>
      <point x="472" y="966"/>
      <point x="417" y="854"/>
      <point x="302" y="802" type="curve"/>
      <point x="387" y="746"/>
      <point x="460" y="676"/>
      <point x="534" y="608" type="curve"/>
      <point x="537" y="584"/>
      <point x="539" y="561"/>
      <point x="539" y="539" type="curve" smooth="yes"/>
      <point x="539" y="349"/>
      <point x="415" y="243"/>
      <point x="277" y="243" type="curve" smooth="yes"/>
      <point x="221" y="243"/>
      <point x="162" y="261"/>
      <point x="109" y="299" type="curve"/>
      <point x="105" y="320"/>
      <point x="104" y="340"/>
      <point x="104" y="358" type="curve" smooth="yes"/>
      <point x="104" y="533"/>
      <point x="266" y="545"/>
    </contour>
    <contour>
      <point x="186" y="377" type="curve"/>
      <point x="209" y="353"/>
      <point x="248" y="339"/>
      <point x="285" y="339" type="curve" smooth="yes"/>
      <point x="335" y="339"/>
      <point x="382" y="365"/>
      <point x="382" y="426" type="curve" smooth="yes"/>
      <point x="382" y="434"/>
      <point x="381" y="444"/>
      <point x="379" y="454" type="curve"/>
      <point x="358" y="455"/>
      <point x="337" y="456"/>
      <point x="318" y="456" type="curve" smooth="yes"/>
      <point x="247" y="456"/>
      <point x="191" y="443"/>
    </contour>
  </outline>
</glyph>
<glyph name="Aogonek" format="1">
  <advance width="875"/>
  <unicode hex="0104"/>
  <outline>
    <contour>
      <point x="747" y="149" type="curve"/>
      <point x="665" y="141"/>
      <point x="616" y="100"/>
      <point x="612" y="14" type="curve"/>
      <point x="636" y="-8"/>
      <point x="646" y="-38"/>
      <point x="686" y="-47" type="curve" smooth="yes"/>
      <point x="692" y="-49"/>
      <point x="698" y="-49"/>
      <point x="704" y="-49" type="curve" smooth="yes"/>
      <point x="743" y="-49"/>
      <point x="790" y="-28"/>
      <point x="818" y="-28" type="curve" smooth="yes"/>
      <point x="834" y="-28"/>
      <point x="845" y="-35"/>
      <point x="845" y="-56" type="curve" smooth="yes"/>
      <point x="845" y="-94"/>
      <point x="764" y="-122"/>
      <point x="692" y="-122" type="curve" smooth="yes"/>
      <point x="672" y="-122"/>
      <point x="652" y="-119"/>
      <point x="636" y="-115" type="curve"/>
      <point x="594" y="-101"/>
      <point x="589" y="-50"/>
      <point x="551" y="-47" type="curve"/>
      <point x="542" y="-23"/>
      <point x="539" y="-1"/>
      <point x="539" y="19" type="curve" smooth="yes"/>
      <point x="539" y="139"/>
      <point x="666" y="200"/>
      <point x="666" y="302" type="curve" smooth="yes"/>
      <point x="666" y="374"/>
      <point x="618" y="430"/>
      <point x="618" y="520" type="curve" smooth="yes"/>
      <point x="618" y="535" type="line"/>
      <point x="488" y="515"/>
      <point x="365" y="487"/>
      <point x="245" y="455" type="curve"/>
      <point x="199" y="367"/>
      <point x="154" y="277"/>
      <point x="134" y="161" type="curve"/>
      <point x="96" y="145"/>
      <point x="99" y="92"/>
      <point x="47" y="92" type="curve" smooth="yes"/>
      <point x="43" y="92"/>
      <point x="36" y="92"/>
      <point x="30" y="94" type="curve"/>
      <point x="30" y="97" type="line" smooth="yes"/>
      <point x="30" y="178"/>
      <point x="78" y="265"/>
      <point x="116" y="358" type="curve" smooth="yes"/>
      <point x="182" y="524"/>
      <point x="261" y="691"/>
      <point x="354" y="841" type="curve" smooth="yes"/>
      <point x="408" y="928"/>
      <point x="470" y="1053"/>
      <point x="563" y="1079" type="curve"/>
      <point x="567" y="1079" type="line" smooth="yes"/>
      <point x="612" y="1079"/>
      <point x="660" y="863"/>
      <point x="666" y="817" type="curve" smooth="yes"/>
      <point x="678" y="718"/>
      <point x="680" y="635"/>
      <point x="692" y="541" type="curve" smooth="yes"/>
      <point x="707" y="421"/>
      <point x="755" y="323"/>
      <point x="755" y="218" type="curve" smooth="yes"/>
      <point x="755" y="196"/>
      <point x="753" y="173"/>
    </contour>
    <contour>
      <point x="275" y="547" type="curve"/>
      <point x="383" y="577"/>
      <point x="525" y="574"/>
      <point x="612" y="626" type="curve"/>
      <point x="596" y="748"/>
      <point x="583" y="876"/>
      <point x="551" y="982" type="curve"/>
      <point x="419" y="877"/>
      <point x="344" y="713"/>
    </contour>
  </outline>
</glyph>
<glyph name="c" format="1">
  <advance width="518"/>
  <unicode hex="0107"/>
  <outline>
    <contour>
      <point x="355" y="1053" type="curve" smooth="yes"/>
      <point x="372" y="1053"/>
      <point x="391" y="1050"/>
      <point x="409" y="1044" type="curve"/>
      <point x="356" y="981"/>
      <point x="287" y="872"/>
      <point x="196" y="872" type="curve" smooth="yes"/>
      <point x="185" y="872"/>
      <point x="174" y="874"/>
      <point x="163" y="877" type="curve"/>
      <point x="183" y="966"/>
      <point x="261" y="1052"/>
    </contour>
    <contour>
      <point x="302" y="769" type="curve" smooth="yes"/>
      <point x="378" y="769"/>
      <point x="450" y="732"/>
      <point x="488" y="647" type="curve"/>
      <point x="474" y="631"/>
      <point x="458" y="625"/>
      <point x="442" y="625" type="curve" smooth="yes"/>
      <point x="399" y="625"/>
      <point x="353" y="669"/>
      <point x="322" y="687" type="curve"/>
      <point x="200" y="684"/>
      <point x="129" y="582"/>
      <point x="129" y="487" type="curve" smooth="yes"/>
      <point x="129" y="409"/>
      <point x="176" y="335"/>
      <point x="282" y="322" type="curve"/>
      <point x="318" y="336"/>
      <point x="357" y="347"/>
      <point x="385" y="370" type="curve"/>
      <point x="422" y="347"/>
      <point x="472" y="336"/>
      <point x="480" y="283" type="curve"/>
      <point x="438" y="241"/>
      <point x="384" y="224"/>
      <point x="329" y="224" type="curve" smooth="yes"/>
      <point x="201" y="224"/>
      <point x="64" y="318"/>
      <point x="36" y="425" type="curve"/>
      <point x="32" y="447"/>
      <point x="30" y="468"/>
      <point x="30" y="488" type="curve" smooth="yes"/>
      <point x="30" y="658"/>
      <point x="171" y="768"/>
    </contour>
  </outline>
</glyph>
<glyph name="D" format="1">
  <advance width="922"/>
  <unicode hex="010E"/>
  <outline>
    <contour>
      <point x="391" y="1493" type="curve"/>
      <point x="505" y="1486"/>
      <point x="451" y="1313"/>
      <point x="490" y="1231" type="curve"/>
      <point x="602" y="1272"/>
      <point x="565" y="1463"/>
      <point x="718" y="1463" type="curve" smooth="yes"/>
      <point x="729" y="1463"/>
      <point x="740" y="1462"/>
      <point x="752" y="1460" type="curve"/>
      <point x="727" y="1300"/>
      <point x="590" y="1250"/>
      <point x="555" y="1099" type="curve"/>
      <point x="796" y="1043"/>
      <point x="893" y="897"/>
      <point x="893" y="738" type="curve" smooth="yes"/>
      <point x="893" y="478"/>
      <point x="636" y="183"/>
      <point x="333" y="183" type="curve" smooth="yes"/>
      <point x="256" y="183"/>
      <point x="176" y="202"/>
      <point x="96" y="246" type="curve"/>
      <point x="136" y="235"/>
      <point x="177" y="230"/>
      <point x="218" y="230" type="curve" smooth="yes"/>
      <point x="512" y="230"/>
      <point x="791" y="500"/>
      <point x="791" y="730" type="curve" smooth="yes"/>
      <point x="791" y="869"/>
      <point x="689" y="994"/>
      <point x="424" y="1034" type="curve"/>
      <point x="348" y="877"/>
      <point x="325" y="667"/>
      <point x="325" y="435" type="curve" smooth="yes"/>
      <point x="325" y="405"/>
      <point x="325" y="375"/>
      <point x="326" y="345" type="curve"/>
      <point x="247" y="365"/>
      <point x="222" y="418"/>
      <point x="222" y="487" type="curve" smooth="yes"/>
      <point x="222" y="602"/>
      <point x="293" y="759"/>
      <point x="293" y="858" type="curve" smooth="yes"/>
      <point x="293" y="870" type="line"/>
      <point x="287" y="882"/>
      <point x="278" y="886"/>
      <point x="267" y="886" type="curve" smooth="yes"/>
      <point x="229" y="886"/>
      <point x="165" y="826"/>
      <point x="86" y="826" type="curve" smooth="yes"/>
      <point x="68" y="826"/>
      <point x="49" y="829"/>
      <point x="30" y="837" type="curve"/>
      <point x="30" y="850" type="line" smooth="yes"/>
      <point x="30" y="1066"/>
      <point x="211" y="1099"/>
      <point x="426" y="1099" type="curve" smooth="yes"/>
      <point x="457" y="1099" type="line"/>
      <point x="424" y="1192"/>
      <point x="385" y="1279"/>
      <point x="385" y="1406" type="curve" smooth="yes"/>
      <point x="385" y="1433"/>
      <point x="387" y="1462"/>
    </contour>
  </outline>
</glyph>
<glyph name="E" format="1">
  <advance width="1028"/>
  <unicode hex="011A"/>
  <outline>
    <contour>
      <point x="926" y="961" type="curve"/>
      <point x="911" y="961" type="line" smooth="yes"/>
      <point x="814" y="961"/>
      <point x="696" y="969"/>
      <point x="584" y="969" type="curve" smooth="yes"/>
      <point x="382" y="969"/>
      <point x="200" y="942"/>
      <point x="200" y="793" type="curve" smooth="yes"/>
      <point x="200" y="752"/>
      <point x="214" y="701"/>
      <point x="245" y="639" type="curve"/>
      <point x="274" y="632"/>
      <point x="302" y="630"/>
      <point x="329" y="630" type="curve" smooth="yes"/>
      <point x="435" y="630"/>
      <point x="527" y="670"/>
      <point x="608" y="670" type="curve" smooth="yes"/>
      <point x="645" y="670"/>
      <point x="679" y="662"/>
      <point x="711" y="639" type="curve"/>
      <point x="633" y="526"/>
      <point x="418" y="549"/>
      <point x="245" y="531" type="curve"/>
      <point x="240" y="509"/>
      <point x="238" y="489"/>
      <point x="238" y="472" type="curve" smooth="yes"/>
      <point x="238" y="387"/>
      <point x="282" y="346"/>
      <point x="282" y="262" type="curve" smooth="yes"/>
      <point x="282" y="256"/>
      <point x="281" y="250"/>
      <point x="281" y="244" type="curve"/>
      <point x="415" y="255"/>
      <point x="642" y="391"/>
      <point x="813" y="391" type="curve" smooth="yes"/>
      <point x="891" y="391"/>
      <point x="957" y="363"/>
      <point x="998" y="280" type="curve"/>
      <point x="725" y="242"/>
      <point x="464" y="193"/>
      <point x="209" y="137" type="curve"/>
      <point x="185" y="340"/>
      <point x="133" y="515"/>
      <point x="30" y="639" type="curve"/>
      <point x="138" y="639" type="line"/>
      <point x="111" y="703"/>
      <point x="99" y="760"/>
      <point x="99" y="809" type="curve" smooth="yes"/>
      <point x="99" y="1013"/>
      <point x="307" y="1093"/>
      <point x="518" y="1093" type="curve" smooth="yes"/>
      <point x="688" y="1093"/>
      <point x="859" y="1041"/>
    </contour>
    <contour>
      <point x="245" y="1499" type="curve"/>
      <point x="356" y="1491"/>
      <point x="357" y="1372"/>
      <point x="389" y="1284" type="curve"/>
      <point x="480" y="1332"/>
      <point x="498" y="1490"/>
      <point x="595" y="1490" type="curve" smooth="yes"/>
      <point x="617" y="1490"/>
      <point x="643" y="1482"/>
      <point x="675" y="1463" type="curve"/>
      <point x="615" y="1344"/>
      <point x="493" y="1286"/>
      <point x="460" y="1140" type="curve"/>
      <point x="331" y="1188"/>
      <point x="243" y="1276"/>
      <point x="243" y="1451" type="curve" smooth="yes"/>
      <point x="243" y="1467"/>
      <point x="244" y="1482"/>
    </contour>
  </outline>
</glyph>
<glyph name="lslash" format="1">
  <advance width="457"/>
  <unicode hex="0142"/>
  <outline>
    <contour>
      <point x="337" y="1302" type="line"/>
      <point x="357" y="1273"/>
      <point x="363" y="1232"/>
      <point x="363" y="1188" type="curve" smooth="yes"/>
      <point x="363" y="1134"/>
      <point x="354" y="1073"/>
      <point x="354" y="1018" type="curve" smooth="yes"/>
      <point x="354" y="947"/>
      <point x="368" y="885"/>
      <point x="427" y="857" type="curve"/>
      <point x="328" y="712"/>
      <point x="383" y="429"/>
      <point x="336" y="236" type="curve"/>
      <point x="323" y="228"/>
      <point x="308" y="224"/>
      <point x="294" y="224" type="curve" smooth="yes"/>
      <point x="285" y="224"/>
      <point x="274" y="226"/>
      <point x="265" y="229" type="curve"/>
      <point x="258" y="268"/>
      <point x="256" y="309"/>
      <point x="256" y="350" type="curve" smooth="yes"/>
      <point x="256" y="430"/>
      <point x="264" y="514"/>
      <point x="264" y="597" type="curve" smooth="yes"/>
      <point x="264" y="620"/>
      <point x="264" y="643"/>
      <point x="262" y="666" type="curve"/>
      <point x="204" y="656"/>
      <point x="140" y="596"/>
      <point x="86" y="596" type="curve" smooth="yes"/>
      <point x="66" y="596"/>
      <point x="46" y="605"/>
      <point x="30" y="628" type="curve"/>
      <point x="97" y="738"/>
      <point x="250" y="740"/>
      <point x="267" y="893" type="curve" smooth="yes"/>
      <point x="270" y="921"/>
      <point x="271" y="949"/>
      <point x="271" y="977" type="curve" smooth="yes"/>
      <point x="271" y="1034"/>
      <point x="267" y="1090"/>
      <point x="267" y="1149" type="curve" smooth="yes"/>
      <point x="267" y="1190"/>
      <point x="268" y="1234"/>
      <point x="276" y="1280" type="curve"/>
      <point x="291" y="1291"/>
      <point x="305" y="1302"/>
      <point x="332" y="1302" type="curve" smooth="yes"/>
    </contour>
  </outline>
</glyph>
<glyph name="N" format="1">
  <advance width="1081"/>
  <unicode hex="0147"/>
  <outline>
    <contour>
      <point x="469" y="918" type="curve"/>
      <point x="325" y="986"/>
      <point x="316" y="1189"/>
      <point x="227" y="1311" type="curve"/>
      <point x="235" y="1312"/>
      <point x="242" y="1312"/>
      <point x="249" y="1312" type="curve" smooth="yes"/>
      <point x="373" y="1312"/>
      <point x="372" y="1188"/>
      <point x="408" y="1100" type="curve"/>
      <point x="514" y="1126"/>
      <point x="488" y="1283"/>
      <point x="620" y="1283" type="curve" smooth="yes"/>
      <point x="629" y="1283"/>
      <point x="639" y="1283"/>
      <point x="650" y="1281" type="curve"/>
      <point x="614" y="1136"/>
      <point x="490" y="1078"/>
    </contour>
    <contour>
      <point x="782" y="1134" type="curve"/>
      <point x="849" y="1008"/>
      <point x="862" y="826"/>
      <point x="872" y="643" type="curve"/>
      <point x="987" y="550"/>
      <point x="1051" y="407"/>
      <point x="1051" y="198" type="curve" smooth="yes"/>
      <point x="1051" y="183"/>
      <point x="1051" y="168"/>
      <point x="1050" y="152" type="curve"/>
      <point x="614" y="162"/>
      <point x="470" y="465"/>
      <point x="158" y="599" type="curve"/>
      <point x="149" y="580"/>
      <point x="145" y="563"/>
      <point x="145" y="547" type="curve" smooth="yes"/>
      <point x="145" y="466"/>
      <point x="247" y="423"/>
      <point x="247" y="379" type="curve" smooth="yes"/>
      <point x="247" y="364"/>
      <point x="235" y="348"/>
      <point x="202" y="331" type="curve"/>
      <point x="93" y="350"/>
      <point x="30" y="495"/>
      <point x="30" y="626" type="curve" smooth="yes"/>
      <point x="30" y="683"/>
      <point x="42" y="738"/>
      <point x="68" y="777" type="curve"/>
      <point x="449" y="697"/>
      <point x="576" y="363"/>
      <point x="916" y="242" type="curve"/>
      <point x="915" y="517"/>
      <point x="742" y="665"/>
      <point x="742" y="917" type="curve" smooth="yes"/>
      <point x="742" y="981"/>
      <point x="754" y="1052"/>
    </contour>
  </outline>
</glyph>
<glyph name="n" format="1">
  <advance width="482"/>
  <unicode hex="0148"/>
  <outline>
    <contour>
      <point x="294" y="818" type="curve"/>
      <point x="435" y="748"/>
      <point x="342" y="443"/>
      <point x="453" y="342" type="curve"/>
      <point x="445" y="341"/>
      <point x="437" y="340"/>
      <point x="430" y="340" type="curve" smooth="yes"/>
      <point x="270" y="340"/>
      <point x="351" y="583"/>
      <point x="294" y="686" type="curve"/>
      <point x="251" y="677"/>
      <point x="247" y="628"/>
      <point x="194" y="628" type="curve" smooth="yes"/>
      <point x="185" y="628"/>
      <point x="174" y="630"/>
      <point x="162" y="633" type="curve"/>
      <point x="162" y="289" type="line"/>
      <point x="89" y="307"/>
      <point x="73" y="409"/>
      <point x="73" y="520" type="curve" smooth="yes"/>
      <point x="73" y="618"/>
      <point x="86" y="722"/>
      <point x="86" y="783" type="curve" smooth="yes"/>
      <point x="86" y="797"/>
      <point x="85" y="809"/>
      <point x="83" y="818" type="curve"/>
      <point x="87" y="818"/>
      <point x="91" y="819"/>
      <point x="95" y="819" type="curve" smooth="yes"/>
      <point x="153" y="819"/>
      <point x="152" y="760"/>
      <point x="162" y="712" type="curve"/>
      <point x="239" y="714"/>
      <point x="260" y="773"/>
    </contour>
    <contour>
      <point x="241" y="765" type="curve"/>
      <point x="115" y="824"/>
      <point x="108" y="1002"/>
      <point x="30" y="1109" type="curve"/>
      <point x="37" y="1110"/>
      <point x="43" y="1110"/>
      <point x="49" y="1110" type="curve" smooth="yes"/>
      <point x="157" y="1110"/>
      <point x="158" y="1002"/>
      <point x="189" y="924" type="curve"/>
      <point x="282" y="946"/>
      <point x="259" y="1084"/>
      <point x="374" y="1084" type="curve" smooth="yes"/>
      <point x="382" y="1084"/>
      <point x="390" y="1083"/>
      <point x="400" y="1082" type="curve"/>
      <point x="368" y="955"/>
      <point x="259" y="905"/>
    </contour>
  </outline>
</glyph>
<glyph name="R" format="1">
  <advance width="1075"/>
  <unicode hex="0158"/>
  <outline>
    <contour>
      <point x="607" y="709" type="curve"/>
      <point x="563" y="663"/>
      <point x="498" y="637"/>
      <point x="408" y="637" type="curve" smooth="yes"/>
      <point x="386" y="637"/>
      <point x="362" y="639"/>
      <point x="336" y="642" type="curve"/>
      <point x="461" y="418"/>
      <point x="714" y="321"/>
      <point x="1046" y="304" type="curve"/>
      <point x="991" y="254"/>
      <point x="916" y="232"/>
      <point x="834" y="232" type="curve" smooth="yes"/>
      <point x="584" y="232"/>
      <point x="268" y="440"/>
      <point x="268" y="715" type="curve" smooth="yes"/>
      <point x="268" y="725"/>
      <point x="268" y="734"/>
      <point x="269" y="743" type="curve"/>
      <point x="278" y="743"/>
      <point x="287" y="744"/>
      <point x="297" y="744" type="curve" smooth="yes"/>
      <point x="331" y="744"/>
      <point x="366" y="742"/>
      <point x="400" y="742" type="curve" smooth="yes"/>
      <point x="458" y="742"/>
      <point x="511" y="747"/>
      <point x="539" y="777" type="curve"/>
      <point x="508" y="870"/>
      <point x="477" y="962"/>
      <point x="370" y="979" type="curve"/>
      <point x="166" y="955"/>
      <point x="143" y="713"/>
      <point x="143" y="483" type="curve" smooth="yes"/>
      <point x="143" y="418"/>
      <point x="145" y="353"/>
      <point x="145" y="295" type="curve" smooth="yes"/>
      <point x="145" y="232"/>
      <point x="143" y="177"/>
      <point x="134" y="135" type="curve"/>
      <point x="60" y="227"/>
      <point x="30" y="340"/>
      <point x="30" y="454" type="curve" smooth="yes"/>
      <point x="30" y="743"/>
      <point x="223" y="1043"/>
      <point x="390" y="1043" type="curve" smooth="yes"/>
      <point x="483" y="1043"/>
      <point x="568" y="950"/>
    </contour>
    <contour>
      <point x="134" y="1385" type="curve"/>
      <point x="246" y="1373"/>
      <point x="280" y="1284"/>
      <point x="336" y="1216" type="curve"/>
      <point x="421" y="1257"/>
      <point x="453" y="1352"/>
      <point x="579" y="1352" type="curve" smooth="yes"/>
      <point x="588" y="1352"/>
      <point x="597" y="1352"/>
      <point x="607" y="1351" type="curve"/>
      <point x="588" y="1212"/>
      <point x="430" y="1211"/>
      <point x="370" y="1114" type="curve"/>
      <point x="249" y="1161"/>
      <point x="146" y="1228"/>
    </contour>
  </outline>
</glyph>
<glyph name="r" format="1">
  <advance width="428"/>
  <unicode hex="0159"/>
  <outline>
    <contour>
      <point x="116" y="1098" type="curve"/>
      <point x="185" y="1072"/>
      <point x="191" y="984"/>
      <point x="201" y="900" type="curve"/>
      <point x="297" y="921"/>
      <point x="239" y="1099"/>
      <point x="356" y="1099" type="curve" smooth="yes"/>
      <point x="361" y="1099"/>
      <point x="365" y="1098"/>
      <point x="370" y="1098" type="curve"/>
      <point x="353" y="964"/>
      <point x="291" y="876"/>
      <point x="257" y="759" type="curve"/>
      <point x="281" y="669"/>
      <point x="340" y="615"/>
      <point x="399" y="561" type="curve"/>
      <point x="389" y="539"/>
      <point x="373" y="530"/>
      <point x="357" y="530" type="curve" smooth="yes"/>
      <point x="314" y="530"/>
      <point x="262" y="585"/>
      <point x="257" y="617" type="curve"/>
      <point x="192" y="563"/>
      <point x="141" y="453"/>
      <point x="141" y="338" type="curve" smooth="yes"/>
      <point x="141" y="289"/>
      <point x="151" y="239"/>
      <point x="172" y="193" type="curve"/>
      <point x="52" y="262"/>
      <point x="30" y="534"/>
      <point x="30" y="681" type="curve" smooth="yes"/>
      <point x="30" y="700"/>
      <point x="30" y="717"/>
      <point x="31" y="731" type="curve"/>
      <point x="89" y="705"/>
      <point x="116" y="649"/>
      <point x="116" y="566" type="curve" smooth="yes"/>
      <point x="116" y="561" type="line"/>
      <point x="168" y="591"/>
      <point x="186" y="636"/>
      <point x="186" y="687" type="curve" smooth="yes"/>
      <point x="186" y="797"/>
      <point x="105" y="938"/>
      <point x="105" y="1042" type="curve" smooth="yes"/>
      <point x="105" y="1062"/>
      <point x="109" y="1081"/>
    </contour>
  </outline>
</glyph>
<glyph name="scaron" format="1">
  <advance width="447"/>
  <unicode hex="0161"/>
  <outline>
    <contour>
      <point x="249" y="1090" type="curve" smooth="yes"/>
      <point x="260" y="1090"/>
      <point x="274" y="1087"/>
      <point x="291" y="1078" type="curve"/>
      <point x="306" y="1057"/>
      <point x="312" y="1035"/>
      <point x="312" y="1011" type="curve" smooth="yes"/>
      <point x="312" y="961"/>
      <point x="286" y="908"/>
      <point x="266" y="869" type="curve"/>
      <point x="237" y="846"/>
      <point x="197" y="835"/>
      <point x="159" y="835" type="curve" smooth="yes"/>
      <point x="93" y="835"/>
      <point x="30" y="866"/>
      <point x="30" y="917" type="curve" smooth="yes"/>
      <point x="30" y="920"/>
      <point x="31" y="924"/>
      <point x="31" y="927" type="curve" smooth="yes"/>
      <point x="35" y="955"/>
      <point x="53" y="966"/>
      <point x="74" y="966" type="curve" smooth="yes"/>
      <point x="102" y="966"/>
      <point x="138" y="946"/>
      <point x="157" y="919" type="curve"/>
      <point x="232" y="926"/>
      <point x="179" y="1089"/>
    </contour>
    <contour>
      <point x="197" y="751" type="curve"/>
      <point x="200" y="751" type="line" smooth="yes"/>
      <point x="288" y="751"/>
      <point x="395" y="699"/>
      <point x="417" y="634" type="curve"/>
      <point x="417" y="629" type="line" smooth="yes"/>
      <point x="417" y="609"/>
      <point x="395" y="611"/>
      <point x="392" y="592" type="curve"/>
      <point x="328" y="602"/>
      <point x="306" y="653"/>
      <point x="232" y="653" type="curve" smooth="yes"/>
      <point x="222" y="653"/>
      <point x="211" y="652"/>
      <point x="199" y="650" type="curve"/>
      <point x="229" y="539"/>
      <point x="360" y="518"/>
      <point x="360" y="391" type="curve" smooth="yes"/>
      <point x="360" y="383"/>
      <point x="359" y="374"/>
      <point x="358" y="365" type="curve" smooth="yes"/>
      <point x="349" y="290"/>
      <point x="242" y="221"/>
      <point x="155" y="221" type="curve" smooth="yes"/>
      <point x="150" y="221"/>
      <point x="145" y="221"/>
      <point x="140" y="222" type="curve" smooth="yes"/>
      <point x="111" y="225"/>
      <point x="40" y="251"/>
      <point x="40" y="303" type="curve" smooth="yes"/>
      <point x="40" y="316"/>
      <point x="45" y="331"/>
      <point x="56" y="348" type="curve"/>
      <point x="83" y="335"/>
      <point x="113" y="328"/>
      <point x="142" y="328" type="curve" smooth="yes"/>
      <point x="188" y="328"/>
      <point x="232" y="346"/>
      <point x="257" y="382" type="curve"/>
      <point x="240" y="498"/>
      <point x="88" y="539"/>
      <point x="81" y="642" type="curve"/>
      <point x="81" y="652" type="line" smooth="yes"/>
      <point x="81" y="723"/>
      <point x="134" y="750"/>
    </contour>
  </outline>
</glyph>
<glyph name="Majuscule" format="1">
  <advance width="608"/>
  <unicode hex="0178"/>
  <outline>
    <contour>
      <point x="578" y="957" type="curve"/>
      <point x="578" y="951" type="line" smooth="yes"/>
      <point x="578" y="880"/>
      <point x="515" y="837"/>
      <point x="462" y="837" type="curve" smooth="yes"/>
      <point x="440" y="837"/>
      <point x="421" y="844"/>
      <point x="407" y="857" type="curve"/>
      <point x="431" y="923"/>
      <point x="498" y="946"/>
    </contour>
    <contour>
      <point x="119" y="1054" type="curve" smooth="yes"/>
      <point x="207" y="1053"/>
      <point x="244" y="1019"/>
      <point x="244" y="982" type="curve" smooth="yes"/>
      <point x="244" y="956"/>
      <point x="224" y="928"/>
      <point x="189" y="911" type="curve"/>
      <point x="106" y="935"/>
      <point x="108" y="1002"/>
      <point x="77" y="1052" type="curve"/>
      <point x="92" y="1054"/>
      <point x="106" y="1054"/>
    </contour>
    <contour>
      <point x="449" y="734" type="line"/>
      <point x="477" y="725"/>
      <point x="506" y="720"/>
      <point x="536" y="720" type="curve" smooth="yes"/>
      <point x="546" y="720"/>
      <point x="556" y="721"/>
      <point x="566" y="722" type="curve"/>
      <point x="560" y="702"/>
      <point x="554" y="684"/>
      <point x="548" y="664" type="curve"/>
      <point x="542" y="664" type="line"/>
      <point x="461" y="613"/>
      <point x="396" y="545"/>
      <point x="263" y="545" type="curve" smooth="yes"/>
      <point x="248" y="545"/>
      <point x="233" y="546"/>
      <point x="216" y="548" type="curve"/>
      <point x="168" y="441"/>
      <point x="207" y="247"/>
      <point x="77" y="222" type="curve"/>
      <point x="98" y="312"/>
      <point x="146" y="376"/>
      <point x="146" y="488" type="curve" smooth="yes"/>
      <point x="146" y="501" type="line"/>
      <point x="139" y="579"/>
      <point x="43" y="569"/>
      <point x="30" y="641" type="curve"/>
      <point x="51" y="720"/>
      <point x="40" y="832"/>
      <point x="100" y="873" type="curve"/>
      <point x="112" y="876"/>
      <point x="122" y="878"/>
      <point x="130" y="878" type="curve" smooth="yes"/>
      <point x="191" y="878"/>
      <point x="168" y="794"/>
      <point x="216" y="780" type="curve"/>
      <point x="214" y="766"/>
      <point x="209" y="761"/>
      <point x="203" y="761" type="curve" smooth="yes"/>
      <point x="184" y="761"/>
      <point x="151" y="811"/>
      <point x="146" y="827" type="curve"/>
      <point x="81" y="815"/>
      <point x="104" y="715"/>
      <point x="77" y="664" type="curve"/>
      <point x="100" y="617"/>
      <point x="168" y="594"/>
      <point x="240" y="594" type="curve" smooth="yes"/>
      <point x="341" y="594"/>
      <point x="449" y="639"/>
      <point x="449" y="729" type="curve" smooth="yes"/>
    </contour>
  </outline>
</glyph>
<glyph name="S" format="1">
  <advance width="500"/>
  <unicode hex="0218"/>
  <outline>
    <contour>
      <point x="354" y="1109" type="curve"/>
      <point x="363" y="1082"/>
      <point x="378" y="1034"/>
      <point x="378" y="993" type="curve" smooth="yes"/>
      <point x="378" y="956"/>
      <point x="365" y="926"/>
      <point x="321" y="926" type="curve" smooth="yes"/>
      <point x="317" y="926"/>
      <point x="313" y="927"/>
      <point x="309" y="927" type="curve"/>
      <point x="321" y="950"/>
      <point x="326" y="970"/>
      <point x="326" y="988" type="curve" smooth="yes"/>
      <point x="326" y="1029"/>
      <point x="300" y="1059"/>
      <point x="263" y="1087" type="curve"/>
      <point x="204" y="1055"/>
      <point x="134" y="1033"/>
      <point x="126" y="950" type="curve"/>
      <point x="236" y="821"/>
      <point x="471" y="657"/>
      <point x="471" y="495" type="curve" smooth="yes"/>
      <point x="471" y="425"/>
      <point x="427" y="355"/>
      <point x="309" y="289" type="curve"/>
      <point x="334" y="273"/>
      <point x="346" y="241"/>
      <point x="346" y="208" type="curve" smooth="yes"/>
      <point x="346" y="155"/>
      <point x="316" y="96"/>
      <point x="263" y="84" type="curve"/>
      <point x="263" y="95" type="line" smooth="yes"/>
      <point x="263" y="148"/>
      <point x="290" y="175"/>
      <point x="290" y="228" type="curve" smooth="yes"/>
      <point x="290" y="239"/>
      <point x="289" y="252"/>
      <point x="286" y="266" type="curve"/>
      <point x="275" y="266" type="line" smooth="yes"/>
      <point x="222" y="266"/>
      <point x="196" y="240"/>
      <point x="143" y="240" type="curve" smooth="yes"/>
      <point x="131" y="240"/>
      <point x="118" y="241"/>
      <point x="104" y="244" type="curve"/>
      <point x="70" y="287"/>
      <point x="30" y="323"/>
      <point x="30" y="399" type="curve" smooth="yes"/>
      <point x="30" y="414"/>
      <point x="32" y="430"/>
      <point x="35" y="449" type="curve"/>
      <point x="43" y="449" type="line" smooth="yes"/>
      <point x="109" y="449"/>
      <point x="75" y="349"/>
      <point x="104" y="312" type="curve"/>
      <point x="119" y="310"/>
      <point x="133" y="310"/>
      <point x="147" y="310" type="curve" smooth="yes"/>
      <point x="307" y="310"/>
      <point x="363" y="415"/>
      <point x="423" y="517" type="curve"/>
      <point x="335" y="631"/>
      <point x="87" y="858"/>
      <point x="87" y="996" type="curve" smooth="yes"/>
      <point x="87" y="1064"/>
      <point x="147" y="1110"/>
      <point x="316" y="1110" type="curve" smooth="yes"/>
      <point x="328" y="1110"/>
      <point x="341" y="1109"/>
    </contour>
  </outline>
</glyph>
<glyph name="s" format="1">
  <advance width="556"/>
  <unicode hex="0219"/>
  <outline>
    <contour>
      <point x="523" y="815" type="curve"/>
      <point x="525" y="806"/>
      <point x="526" y="797"/>
      <point x="526" y="790" type="curve" smooth="yes"/>
      <point x="526" y="748"/>
      <point x="491" y="742"/>
      <point x="448" y="742" type="curve" smooth="yes"/>
      <point x="430" y="742"/>
      <point x="409" y="743"/>
      <point x="390" y="743" type="curve" smooth="yes"/>
      <point x="355" y="743"/>
      <point x="324" y="738"/>
      <point x="315" y="711" type="curve"/>
      <point x="359" y="611"/>
      <point x="397" y="520"/>
      <point x="397" y="436" type="curve" smooth="yes"/>
      <point x="397" y="360"/>
      <point x="366" y="290"/>
      <point x="280" y="226" type="curve"/>
      <point x="314" y="162"/>
      <point x="355" y="106"/>
      <point x="355" y="8" type="curve" smooth="yes"/>
      <point x="355" y="-10"/>
      <point x="353" y="-30"/>
      <point x="350" y="-51" type="curve"/>
      <point x="275" y="128"/>
      <point x="30" y="251"/>
      <point x="30" y="443" type="curve" smooth="yes"/>
      <point x="30" y="463"/>
      <point x="33" y="482"/>
      <point x="38" y="503" type="curve"/>
      <point x="48" y="506"/>
      <point x="57" y="507"/>
      <point x="65" y="507" type="curve" smooth="yes"/>
      <point x="150" y="507"/>
      <point x="79" y="352"/>
      <point x="142" y="330" type="curve"/>
      <point x="188" y="365"/>
      <point x="269" y="364"/>
      <point x="315" y="399" type="curve"/>
      <point x="317" y="410"/>
      <point x="317" y="420"/>
      <point x="317" y="429" type="curve" smooth="yes"/>
      <point x="317" y="544"/>
      <point x="211" y="551"/>
      <point x="211" y="664" type="curve" smooth="yes"/>
      <point x="211" y="677" type="line"/>
      <point x="211" y="680" type="line" smooth="yes"/>
      <point x="211" y="774"/>
      <point x="321" y="851"/>
      <point x="421" y="851" type="curve" smooth="yes"/>
      <point x="458" y="851"/>
      <point x="495" y="840"/>
    </contour>
  </outline>
</glyph>
<glyph name="T" format="1">
  <advance width="1178"/>
  <unicode hex="021A"/>
  <outline>
    <contour>
      <point x="713" y="279" type="curve"/>
      <point x="699" y="319"/>
      <point x="686" y="333"/>
      <point x="673" y="333" type="curve" smooth="yes"/>
      <point x="640" y="333"/>
      <point x="606" y="247"/>
      <point x="539" y="247" type="curve" smooth="yes"/>
      <point x="535" y="247"/>
      <point x="531" y="247"/>
      <point x="527" y="248" type="curve"/>
      <point x="519" y="442"/>
      <point x="491" y="618"/>
      <point x="491" y="821" type="curve" smooth="yes"/>
      <point x="491" y="866"/>
      <point x="493" y="913"/>
      <point x="496" y="962" type="curve"/>
      <point x="409" y="959"/>
      <point x="257" y="868"/>
      <point x="148" y="868" type="curve" smooth="yes"/>
      <point x="92" y="868"/>
      <point x="48" y="891"/>
      <point x="30" y="962" type="curve"/>
      <point x="45" y="961"/>
      <point x="60" y="960"/>
      <point x="75" y="960" type="curve" smooth="yes"/>
      <point x="402" y="960"/>
      <point x="663" y="1196"/>
      <point x="942" y="1196" type="curve" smooth="yes"/>
      <point x="1009" y="1196"/>
      <point x="1078" y="1182"/>
      <point x="1148" y="1148" type="curve"/>
      <point x="1074" y="984"/>
      <point x="795" y="1025"/>
      <point x="589" y="993" type="curve"/>
      <point x="589" y="434" type="line"/>
      <point x="659" y="380"/>
      <point x="810" y="407"/>
      <point x="837" y="310" type="curve"/>
      <point x="721" y="126"/>
      <point x="561" y="-14"/>
      <point x="403" y="-156" type="curve"/>
      <point x="402" y="-151"/>
      <point x="402" y="-147"/>
      <point x="402" y="-142" type="curve" smooth="yes"/>
      <point x="402" y="-5"/>
      <point x="626" y="145"/>
    </contour>
  </outline>
</glyph>
<glyph name="t" format="1">
  <advance width="431"/>
  <unicode hex="021B"/>
  <outline>
    <contour>
      <point x="215" y="222" type="curve"/>
      <point x="219" y="223"/>
      <point x="223" y="223"/>
      <point x="227" y="223" type="curve" smooth="yes"/>
      <point x="265" y="223"/>
      <point x="277" y="186"/>
      <point x="277" y="143" type="curve" smooth="yes"/>
      <point x="277" y="85"/>
      <point x="256" y="16"/>
      <point x="243" y="1" type="curve"/>
      <point x="204" y="29"/>
      <point x="192" y="69"/>
      <point x="192" y="108" type="curve" smooth="yes"/>
      <point x="192" y="151"/>
      <point x="207" y="195"/>
    </contour>
    <contour>
      <point x="77" y="1133" type="curve"/>
      <point x="125" y="1128"/>
      <point x="139" y="1098"/>
      <point x="139" y="1058" type="curve" smooth="yes"/>
      <point x="139" y="997"/>
      <point x="104" y="914"/>
      <point x="104" y="867" type="curve" smooth="yes"/>
      <point x="104" y="863"/>
      <point x="105" y="860"/>
      <point x="105" y="857" type="curve"/>
      <point x="109" y="854"/>
      <point x="114" y="852"/>
      <point x="120" y="852" type="curve" smooth="yes"/>
      <point x="166" y="852"/>
      <point x="278" y="934"/>
      <point x="326" y="967" type="curve"/>
      <point x="336" y="952"/>
      <point x="340" y="938"/>
      <point x="340" y="925" type="curve" smooth="yes"/>
      <point x="340" y="842"/>
      <point x="176" y="787"/>
      <point x="105" y="746" type="curve"/>
      <point x="102" y="717"/>
      <point x="101" y="690"/>
      <point x="101" y="664" type="curve" smooth="yes"/>
      <point x="101" y="543"/>
      <point x="130" y="451"/>
      <point x="160" y="360" type="curve"/>
      <point x="181" y="358"/>
      <point x="202" y="357"/>
      <point x="222" y="357" type="curve" smooth="yes"/>
      <point x="304" y="357"/>
      <point x="366" y="377"/>
      <point x="381" y="443" type="curve"/>
      <point x="395" y="424"/>
      <point x="401" y="406"/>
      <point x="401" y="388" type="curve" smooth="yes"/>
      <point x="401" y="321"/>
      <point x="306" y="269"/>
      <point x="201" y="269" type="curve" smooth="yes"/>
      <point x="178" y="269"/>
      <point x="155" y="272"/>
      <point x="132" y="277" type="curve"/>
      <point x="54" y="373"/>
      <point x="30" y="503"/>
      <point x="30" y="645" type="curve" smooth="yes"/>
      <point x="30" y="804"/>
      <point x="60" y="978"/>
    </contour>
  </outline>
</glyph>
<glyph name="bitcoin" format="1">
  <advance width="1185"/>
  <unicode hex="0243"/>
  <outline>
    <contour>
      <point x="553" y="1118" type="curve"/>
      <point x="768" y="1118" type="line"/>
      <point x="784" y="1071"/>
      <point x="860" y="975"/>
      <point x="860" y="899" type="curve" smooth="yes"/>
      <point x="860" y="867"/>
      <point x="847" y="838"/>
      <point x="811" y="818" type="curve"/>
      <point x="872" y="722"/>
      <point x="1043" y="736"/>
      <point x="1110" y="646" type="curve"/>
      <point x="1105" y="627"/>
      <point x="1102" y="611"/>
      <point x="1102" y="598" type="curve" smooth="yes"/>
      <point x="1102" y="533"/>
      <point x="1155" y="521"/>
      <point x="1155" y="457" type="curve" smooth="yes"/>
      <point x="1155" y="449"/>
      <point x="1155" y="441"/>
      <point x="1153" y="432" type="curve"/>
      <point x="1140" y="342"/>
      <point x="963" y="250"/>
      <point x="820" y="250" type="curve" smooth="yes"/>
      <point x="729" y="250"/>
      <point x="651" y="288"/>
      <point x="639" y="389" type="curve"/>
      <point x="693" y="365"/>
      <point x="764" y="348"/>
      <point x="830" y="348" type="curve" smooth="yes"/>
      <point x="924" y="348"/>
      <point x="1009" y="382"/>
      <point x="1025" y="475" type="curve"/>
      <point x="1025" y="486" type="line" smooth="yes"/>
      <point x="1025" y="629"/>
      <point x="903" y="649"/>
      <point x="760" y="649" type="curve" smooth="yes"/>
      <point x="707" y="649"/>
      <point x="650" y="646"/>
      <point x="596" y="646" type="curve"/>
      <point x="612" y="787"/>
      <point x="755" y="832"/>
      <point x="755" y="940" type="curve" smooth="yes"/>
      <point x="755" y="966"/>
      <point x="746" y="996"/>
      <point x="725" y="1032" type="curve"/>
      <point x="723" y="1032" type="line" smooth="yes"/>
      <point x="503" y="1032"/>
      <point x="435" y="858"/>
      <point x="435" y="664" type="curve" smooth="yes"/>
      <point x="435" y="619"/>
      <point x="439" y="573"/>
      <point x="445" y="528" type="curve"/>
      <point x="456" y="528"/>
      <point x="466" y="527"/>
      <point x="476" y="527" type="curve" smooth="yes"/>
      <point x="551" y="527"/>
      <point x="616" y="538"/>
      <point x="692" y="538" type="curve" smooth="yes"/>
      <point x="723" y="538"/>
      <point x="756" y="536"/>
      <point x="792" y="531" type="curve"/>
      <point x="783" y="475"/>
      <point x="722" y="462"/>
      <point x="640" y="462" type="curve" smooth="yes"/>
      <point x="585" y="462"/>
      <point x="519" y="468"/>
      <point x="454" y="470" type="curve"/>
      <point x="468" y="392"/>
      <point x="489" y="320"/>
      <point x="511" y="261" type="curve"/>
      <point x="418" y="294"/>
      <point x="366" y="372"/>
      <point x="344" y="469" type="curve"/>
      <point x="291" y="467"/>
      <point x="238" y="462"/>
      <point x="190" y="462" type="curve" smooth="yes"/>
      <point x="122" y="462"/>
      <point x="65" y="471"/>
      <point x="30" y="504" type="curve"/>
      <point x="59" y="537"/>
      <point x="111" y="547"/>
      <point x="172" y="547" type="curve" smooth="yes"/>
      <point x="222" y="547"/>
      <point x="278" y="540"/>
      <point x="333" y="535" type="curve"/>
      <point x="331" y="554"/>
      <point x="330" y="573"/>
      <point x="330" y="592" type="curve" smooth="yes"/>
      <point x="330" y="808"/>
      <point x="434" y="1057"/>
    </contour>
  </outline>
</glyph>
<glyph name="euro" format="1">
  <advance width="890"/>
  <unicode hex="20AC"/>
  <outline>
    <contour>
      <point x="787" y="861" type="curve"/>
      <point x="789" y="853"/>
      <point x="789" y="845"/>
      <point x="789" y="838" type="curve" smooth="yes"/>
      <point x="789" y="781"/>
      <point x="743" y="749"/>
      <point x="704" y="749" type="curve" smooth="yes"/>
      <point x="689" y="749"/>
      <point x="675" y="753"/>
      <point x="665" y="763" type="curve"/>
      <point x="669" y="792"/>
      <point x="709" y="784"/>
      <point x="738" y="788" type="curve"/>
      <point x="709" y="802"/>
      <point x="683" y="808"/>
      <point x="659" y="808" type="curve" smooth="yes"/>
      <point x="534" y="808"/>
      <point x="466" y="642"/>
      <point x="396" y="568" type="curve"/>
      <point x="429" y="545"/>
      <point x="478" y="539"/>
      <point x="533" y="539" type="curve" smooth="yes"/>
      <point x="594" y="539"/>
      <point x="663" y="547"/>
      <point x="724" y="547" type="curve" smooth="yes"/>
      <point x="779" y="547"/>
      <point x="827" y="541"/>
      <point x="860" y="519" type="curve"/>
      <point x="805" y="477"/>
      <point x="717" y="469"/>
      <point x="620" y="469" type="curve" smooth="yes"/>
      <point x="560" y="469"/>
      <point x="495" y="472"/>
      <point x="435" y="472" type="curve" smooth="yes"/>
      <point x="413" y="472"/>
      <point x="393" y="472"/>
      <point x="372" y="471" type="curve"/>
      <point x="476" y="426"/>
      <point x="572" y="373"/>
      <point x="722" y="373" type="curve" smooth="yes"/>
      <point x="738" y="373" type="line"/>
      <point x="741" y="369"/>
      <point x="742" y="365"/>
      <point x="742" y="362" type="curve" smooth="yes"/>
      <point x="742" y="346"/>
      <point x="710" y="343"/>
      <point x="671" y="343" type="curve" smooth="yes"/>
      <point x="637" y="343"/>
      <point x="596" y="346"/>
      <point x="567" y="348" type="curve" smooth="yes"/>
      <point x="511" y="352"/>
      <point x="461" y="379"/>
      <point x="423" y="379" type="curve" smooth="yes"/>
      <point x="413" y="379"/>
      <point x="404" y="378"/>
      <point x="396" y="373" type="curve"/>
      <point x="397" y="285"/>
      <point x="526" y="323"/>
      <point x="567" y="275" type="curve"/>
      <point x="587" y="273"/>
      <point x="607" y="272"/>
      <point x="625" y="272" type="curve" smooth="yes"/>
      <point x="705" y="272"/>
      <point x="766" y="290"/>
      <point x="836" y="300" type="curve"/>
      <point x="800" y="244"/>
      <point x="733" y="225"/>
      <point x="657" y="225" type="curve" smooth="yes"/>
      <point x="558" y="225"/>
      <point x="445" y="256"/>
      <point x="372" y="275" type="curve"/>
      <point x="372" y="318"/>
      <point x="320" y="310"/>
      <point x="320" y="353" type="curve" smooth="yes"/>
      <point x="320" y="359"/>
      <point x="321" y="365"/>
      <point x="323" y="373" type="curve"/>
      <point x="152" y="373" type="line"/>
      <point x="151" y="379"/>
      <point x="150" y="384"/>
      <point x="150" y="388" type="curve" smooth="yes"/>
      <point x="150" y="419"/>
      <point x="175" y="425"/>
      <point x="206" y="425" type="curve" smooth="yes"/>
      <point x="226" y="425"/>
      <point x="249" y="422"/>
      <point x="269" y="422" type="curve" smooth="yes"/>
      <point x="295" y="422"/>
      <point x="317" y="427"/>
      <point x="323" y="446" type="curve"/>
      <point x="303" y="469"/>
      <point x="266" y="474"/>
      <point x="223" y="474" type="curve" smooth="yes"/>
      <point x="177" y="474"/>
      <point x="124" y="467"/>
      <point x="78" y="467" type="curve" smooth="yes"/>
      <point x="61" y="467"/>
      <point x="45" y="468"/>
      <point x="30" y="471" type="curve"/>
      <point x="38" y="518"/>
      <point x="85" y="526"/>
      <point x="141" y="526" type="curve" smooth="yes"/>
      <point x="166" y="526"/>
      <point x="192" y="524"/>
      <point x="218" y="524" type="curve" smooth="yes"/>
      <point x="258" y="524"/>
      <point x="296" y="527"/>
      <point x="323" y="544" type="curve"/>
      <point x="424" y="659"/>
      <point x="505" y="878"/>
      <point x="693" y="878" type="curve" smooth="yes"/>
      <point x="722" y="878"/>
      <point x="753" y="872"/>
    </contour>
  </outline>
</glyph>
